<svg xmlns="http://www.w3.org/2000/svg" xmlns:xlink="http://www.w3.org/1999/xlink" width="1080" zoomAndPan="magnify" viewBox="0 0 810 809.999993" height="1080" preserveAspectRatio="xMidYMid meet" version="1.0"><defs><clipPath id="aa89fcc095"><path d="M 182 457 L 360 457 L 360 597.910156 L 182 597.910156 Z M 182 457 " clip-rule="nonzero"/></clipPath><clipPath id="cc16dbfd35"><path d="M 379 566 L 411 566 L 411 597.910156 L 379 597.910156 Z M 379 566 " clip-rule="nonzero"/></clipPath><clipPath id="4316e93bf0"><path d="M 245 347 L 511 347 L 511 597.910156 L 245 597.910156 Z M 245 347 " clip-rule="nonzero"/></clipPath><clipPath id="c275e3777a"><path d="M 432 212.410156 L 464 212.410156 L 464 269 L 432 269 Z M 432 212.410156 " clip-rule="nonzero"/></clipPath></defs><rect x="-81" width="972" fill="#ffffff" y="-80.999999" height="971.999992" fill-opacity="1"/><rect x="-81" width="972" fill="#a9b3be" y="-80.999999" height="971.999992" fill-opacity="1"/><g clip-path="url(#aa89fcc095)"><path fill="#ffffff" d="M 343.789062 597.566406 L 253.007812 597.566406 C 251.820312 597.566406 250.632812 597.535156 249.449219 597.476562 C 248.261719 597.414062 247.078125 597.324219 245.898438 597.203125 C 244.714844 597.082031 243.539062 596.929688 242.363281 596.75 C 241.191406 596.566406 240.023438 596.359375 238.859375 596.117188 C 237.699219 595.878906 236.542969 595.609375 235.394531 595.308594 C 234.242188 595.011719 233.101562 594.683594 231.96875 594.328125 C 230.835938 593.972656 229.714844 593.585938 228.601562 593.171875 C 227.488281 592.761719 226.386719 592.320312 225.296875 591.851562 C 224.207031 591.382812 223.128906 590.882812 222.0625 590.359375 C 220.996094 589.835938 219.945312 589.285156 218.90625 588.710938 C 217.867188 588.132812 216.847656 587.53125 215.839844 586.902344 C 214.832031 586.273438 213.839844 585.617188 212.867188 584.9375 C 211.894531 584.261719 210.9375 583.558594 210 582.828125 C 209.0625 582.101562 208.140625 581.351562 207.242188 580.578125 C 206.339844 579.804688 205.460938 579.007812 204.601562 578.1875 C 203.742188 577.367188 202.902344 576.527344 202.085938 575.667969 C 201.269531 574.804688 200.472656 573.925781 199.699219 573.023438 C 198.925781 572.121094 198.179688 571.203125 197.453125 570.261719 C 196.726562 569.324219 196.023438 568.367188 195.347656 567.390625 C 194.667969 566.414062 194.015625 565.425781 193.390625 564.414062 C 192.761719 563.40625 192.160156 562.382812 191.585938 561.347656 C 191.011719 560.308594 190.460938 559.253906 189.9375 558.1875 C 189.417969 557.121094 188.921875 556.042969 188.457031 554.953125 C 187.988281 553.859375 187.546875 552.757812 187.136719 551.644531 C 186.726562 550.53125 186.34375 549.40625 185.988281 548.273438 C 185.632812 547.140625 185.308594 546 185.011719 544.847656 C 184.714844 543.699219 184.445312 542.542969 184.207031 541.378906 C 183.96875 540.214844 183.761719 539.046875 183.582031 537.875 C 183.40625 536.699219 183.253906 535.523438 183.136719 534.34375 C 183.015625 533.160156 182.929688 531.976562 182.867188 530.792969 C 182.808594 529.605469 182.78125 528.417969 182.78125 527.230469 C 182.78125 526.042969 182.8125 524.859375 182.875 523.671875 C 182.933594 522.484375 183.027344 521.300781 183.148438 520.121094 C 183.269531 518.941406 183.417969 517.761719 183.601562 516.589844 C 183.78125 515.417969 183.992188 514.246094 184.230469 513.085938 C 184.46875 511.921875 184.738281 510.765625 185.039062 509.617188 C 185.335938 508.46875 185.664062 507.328125 186.019531 506.195312 C 186.375 505.0625 186.761719 503.9375 187.175781 502.824219 C 187.589844 501.710938 188.027344 500.609375 188.5 499.519531 C 188.96875 498.429688 189.464844 497.351562 189.988281 496.285156 C 190.511719 495.21875 191.0625 494.167969 191.636719 493.128906 C 192.214844 492.09375 192.820312 491.070312 193.449219 490.0625 C 194.078125 489.054688 194.730469 488.066406 195.410156 487.09375 C 196.089844 486.117188 196.792969 485.160156 197.519531 484.222656 C 198.246094 483.285156 198.996094 482.367188 199.769531 481.464844 C 200.546875 480.566406 201.339844 479.683594 202.160156 478.824219 C 202.980469 477.964844 203.820312 477.125 204.679688 476.308594 C 205.542969 475.492188 206.421875 474.695312 207.324219 473.925781 C 208.226562 473.152344 209.144531 472.402344 210.085938 471.675781 C 211.023438 470.949219 211.984375 470.25 212.957031 469.570312 C 213.933594 468.894531 214.925781 468.242188 215.933594 467.613281 C 216.941406 466.984375 217.964844 466.386719 219.003906 465.808594 C 220.039062 465.234375 221.09375 464.683594 222.160156 464.164062 C 223.226562 463.640625 224.304688 463.144531 225.394531 462.679688 C 226.488281 462.210938 227.589844 461.773438 228.703125 461.359375 C 229.816406 460.949219 230.941406 460.566406 232.074219 460.210938 C 233.207031 459.855469 234.347656 459.53125 235.5 459.234375 C 236.648438 458.9375 237.804688 458.671875 238.96875 458.433594 C 240.132812 458.195312 241.300781 457.984375 242.472656 457.808594 C 243.648438 457.628906 244.824219 457.480469 246.007812 457.359375 C 247.1875 457.242188 248.371094 457.152344 249.558594 457.09375 C 250.742188 457.03125 251.929688 457.003906 253.117188 457.003906 C 254.304688 457.003906 255.492188 457.035156 256.675781 457.097656 C 257.863281 457.160156 259.046875 457.25 260.226562 457.371094 C 261.246094 457.476562 262.246094 457.683594 263.226562 457.988281 C 264.207031 458.289062 265.148438 458.6875 266.046875 459.175781 C 266.949219 459.664062 267.796875 460.238281 268.585938 460.894531 C 269.371094 461.546875 270.089844 462.273438 270.734375 463.070312 C 271.382812 463.867188 271.945312 464.722656 272.421875 465.628906 C 272.898438 466.535156 273.285156 467.480469 273.578125 468.464844 C 273.867188 469.449219 274.0625 470.449219 274.15625 471.472656 C 274.25 472.492188 274.242188 473.515625 274.136719 474.535156 C 274.03125 475.554688 273.824219 476.554688 273.519531 477.535156 C 273.214844 478.515625 272.820312 479.453125 272.332031 480.355469 C 271.84375 481.257812 271.269531 482.101562 270.613281 482.890625 C 269.957031 483.679688 269.230469 484.398438 268.433594 485.042969 C 267.636719 485.691406 266.785156 486.25 265.878906 486.730469 C 264.972656 487.207031 264.027344 487.59375 263.042969 487.882812 C 262.058594 488.175781 261.054688 488.367188 260.035156 488.464844 C 259.011719 488.558594 257.992188 488.550781 256.972656 488.445312 C 255.65625 488.304688 254.332031 488.238281 253.007812 488.242188 C 251.726562 488.242188 250.453125 488.304688 249.179688 488.429688 C 247.90625 488.554688 246.644531 488.742188 245.390625 488.992188 C 244.136719 489.242188 242.898438 489.550781 241.671875 489.921875 C 240.449219 490.292969 239.246094 490.722656 238.066406 491.214844 C 236.882812 491.703125 235.730469 492.25 234.601562 492.851562 C 233.472656 493.453125 232.378906 494.109375 231.316406 494.820312 C 230.25 495.53125 229.226562 496.292969 228.238281 497.105469 C 227.25 497.914062 226.300781 498.773438 225.398438 499.675781 C 224.492188 500.582031 223.636719 501.527344 222.824219 502.515625 C 222.011719 503.503906 221.253906 504.53125 220.542969 505.59375 C 219.832031 506.65625 219.175781 507.753906 218.570312 508.878906 C 217.96875 510.007812 217.421875 511.164062 216.933594 512.34375 C 216.445312 513.527344 216.015625 514.726562 215.644531 515.953125 C 215.273438 517.175781 214.960938 518.414062 214.710938 519.667969 C 214.460938 520.921875 214.273438 522.1875 214.148438 523.460938 C 214.023438 524.730469 213.960938 526.007812 213.960938 527.285156 C 213.960938 528.566406 214.023438 529.839844 214.148438 531.113281 C 214.273438 532.386719 214.460938 533.648438 214.710938 534.902344 C 214.960938 536.15625 215.273438 537.398438 215.644531 538.621094 C 216.015625 539.84375 216.445312 541.046875 216.933594 542.226562 C 217.421875 543.410156 217.96875 544.5625 218.570312 545.691406 C 219.175781 546.820312 219.832031 547.914062 220.542969 548.976562 C 221.253906 550.042969 222.011719 551.066406 222.824219 552.054688 C 223.636719 553.042969 224.492188 553.992188 225.398438 554.894531 C 226.300781 555.800781 227.25 556.65625 228.238281 557.46875 C 229.226562 558.28125 230.25 559.039062 231.316406 559.75 C 232.378906 560.460938 233.472656 561.117188 234.601562 561.722656 C 235.730469 562.324219 236.882812 562.871094 238.066406 563.359375 C 239.246094 563.847656 240.449219 564.277344 241.671875 564.648438 C 242.898438 565.019531 244.136719 565.332031 245.390625 565.582031 C 246.644531 565.832031 247.90625 566.019531 249.179688 566.144531 C 250.453125 566.269531 251.726562 566.332031 253.007812 566.332031 L 343.789062 566.332031 C 344.8125 566.332031 345.828125 566.429688 346.835938 566.632812 C 347.839844 566.832031 348.816406 567.128906 349.765625 567.519531 C 350.710938 567.914062 351.613281 568.394531 352.464844 568.964844 C 353.316406 569.535156 354.105469 570.179688 354.832031 570.90625 C 355.554688 571.632812 356.203125 572.417969 356.773438 573.273438 C 357.34375 574.125 357.824219 575.023438 358.214844 575.972656 C 358.609375 576.921875 358.90625 577.898438 359.105469 578.902344 C 359.304688 579.910156 359.40625 580.925781 359.40625 581.949219 C 359.40625 582.976562 359.304688 583.992188 359.105469 584.996094 C 358.90625 586.003906 358.609375 586.980469 358.214844 587.925781 C 357.824219 588.875 357.34375 589.773438 356.773438 590.625 C 356.203125 591.480469 355.554688 592.269531 354.832031 592.992188 C 354.105469 593.71875 353.316406 594.367188 352.464844 594.933594 C 351.613281 595.503906 350.710938 595.984375 349.765625 596.378906 C 348.816406 596.769531 347.839844 597.066406 346.835938 597.265625 C 345.828125 597.46875 344.8125 597.566406 343.789062 597.566406 Z M 343.789062 597.566406 " fill-opacity="1" fill-rule="nonzero"/></g><g clip-path="url(#cc16dbfd35)"><path fill="#ffffff" d="M 395.238281 597.566406 C 393.152344 597.5625 391.140625 597.179688 389.199219 596.417969 C 387.316406 595.585938 385.648438 594.441406 384.195312 592.980469 C 382.726562 591.515625 381.589844 589.832031 380.777344 587.921875 C 379.964844 586.015625 379.542969 584.023438 379.507812 581.949219 C 379.539062 579.875 379.957031 577.878906 380.769531 575.96875 C 381.582031 574.058594 382.722656 572.371094 384.195312 570.90625 C 389.917969 565.082031 400.445312 565.082031 406.269531 570.90625 C 407.730469 572.375 408.855469 574.066406 409.648438 575.976562 C 410.441406 577.890625 410.84375 579.878906 410.855469 581.949219 C 410.855469 584.019531 410.457031 586.011719 409.664062 587.921875 C 408.867188 589.835938 407.738281 591.519531 406.269531 592.980469 C 404.804688 594.441406 403.113281 595.566406 401.203125 596.359375 C 399.296875 597.152344 397.304688 597.554688 395.238281 597.566406 Z M 395.238281 597.566406 " fill-opacity="1" fill-rule="nonzero"/></g><g clip-path="url(#4316e93bf0)"><path fill="#ffffff" d="M 448.234375 597.566406 C 447.207031 597.566406 446.191406 597.46875 445.1875 597.265625 C 444.179688 597.066406 443.203125 596.769531 442.257812 596.378906 C 441.308594 595.984375 440.410156 595.503906 439.554688 594.933594 C 438.703125 594.367188 437.914062 593.71875 437.191406 592.992188 C 436.464844 592.269531 435.816406 591.480469 435.246094 590.625 C 434.679688 589.773438 434.195312 588.875 433.804688 587.925781 C 433.410156 586.980469 433.117188 586.003906 432.914062 584.996094 C 432.714844 583.992188 432.617188 582.976562 432.617188 581.949219 C 432.617188 580.925781 432.714844 579.910156 432.914062 578.902344 C 433.117188 577.898438 433.410156 576.921875 433.804688 575.972656 C 434.195312 575.023438 434.679688 574.125 435.246094 573.273438 C 435.816406 572.417969 436.464844 571.632812 437.191406 570.90625 C 437.914062 570.179688 438.703125 569.535156 439.558594 568.964844 C 440.410156 568.394531 441.308594 567.914062 442.257812 567.519531 C 443.203125 567.128906 444.179688 566.832031 445.1875 566.632812 C 446.191406 566.429688 447.207031 566.332031 448.234375 566.332031 C 449.257812 566.332031 450.277344 566.28125 451.296875 566.179688 C 452.3125 566.082031 453.324219 565.929688 454.328125 565.730469 C 455.332031 565.53125 456.320312 565.285156 457.300781 564.988281 C 458.28125 564.6875 459.242188 564.34375 460.1875 563.953125 C 461.132812 563.5625 462.054688 563.125 462.957031 562.644531 C 463.859375 562.160156 464.738281 561.636719 465.585938 561.066406 C 466.4375 560.5 467.257812 559.890625 468.050781 559.242188 C 468.839844 558.59375 469.597656 557.90625 470.320312 557.183594 C 471.042969 556.460938 471.730469 555.703125 472.378906 554.910156 C 473.027344 554.121094 473.636719 553.300781 474.207031 552.449219 C 474.773438 551.597656 475.300781 550.722656 475.78125 549.820312 C 476.265625 548.917969 476.699219 547.992188 477.09375 547.046875 C 477.484375 546.105469 477.828125 545.140625 478.125 544.164062 C 478.421875 543.183594 478.671875 542.191406 478.871094 541.1875 C 479.070312 540.1875 479.21875 539.175781 479.320312 538.15625 C 479.417969 537.140625 479.46875 536.117188 479.46875 535.09375 C 479.46875 534.070312 479.417969 533.050781 479.320312 532.035156 C 479.21875 531.015625 479.070312 530.003906 478.871094 529 C 478.671875 527.996094 478.421875 527.007812 478.125 526.027344 C 477.828125 525.046875 477.484375 524.085938 477.09375 523.140625 C 476.699219 522.195312 476.265625 521.273438 475.78125 520.371094 C 475.300781 519.46875 474.773438 518.589844 474.207031 517.742188 C 473.636719 516.890625 473.027344 516.070312 472.378906 515.277344 C 471.730469 514.488281 471.042969 513.730469 470.320312 513.007812 C 469.597656 512.285156 468.839844 511.597656 468.050781 510.949219 C 467.257812 510.300781 466.4375 509.691406 465.585938 509.125 C 464.738281 508.554688 463.859375 508.03125 462.957031 507.546875 C 462.054688 507.066406 461.132812 506.628906 460.1875 506.238281 C 459.242188 505.84375 458.28125 505.5 457.300781 505.203125 C 456.320312 504.90625 455.332031 504.660156 454.328125 504.460938 C 453.324219 504.257812 452.3125 504.109375 451.296875 504.007812 C 450.277344 503.910156 449.257812 503.859375 448.234375 503.859375 C 447.035156 503.855469 445.84375 503.921875 444.65625 504.0625 C 443.996094 504.140625 443.335938 504.175781 442.675781 504.171875 C 442.011719 504.167969 441.355469 504.121094 440.699219 504.03125 C 440.042969 503.941406 439.394531 503.808594 438.753906 503.640625 C 438.113281 503.46875 437.488281 503.253906 436.875 503.003906 C 436.261719 502.753906 435.667969 502.464844 435.09375 502.136719 C 434.515625 501.8125 433.964844 501.449219 433.433594 501.050781 C 432.902344 500.65625 432.402344 500.226562 431.925781 499.765625 C 431.449219 499.304688 431.007812 498.816406 430.59375 498.296875 C 430.179688 497.78125 429.800781 497.238281 429.457031 496.671875 C 429.113281 496.109375 428.804688 495.523438 428.535156 494.917969 C 428.265625 494.3125 428.035156 493.695312 427.84375 493.058594 C 427.652344 492.425781 427.5 491.78125 427.390625 491.128906 C 427.28125 490.476562 427.214844 489.820312 427.1875 489.15625 C 427.164062 488.496094 427.179688 487.835938 427.238281 487.175781 C 427.296875 486.515625 427.394531 485.863281 427.535156 485.214844 C 427.675781 484.570312 427.859375 483.933594 428.082031 483.308594 C 428.632812 481.761719 429.136719 480.199219 429.589844 478.621094 C 430.046875 477.042969 430.449219 475.453125 430.804688 473.847656 C 431.15625 472.246094 431.460938 470.632812 431.710938 469.007812 C 431.964844 467.386719 432.164062 465.757812 432.3125 464.121094 C 432.464844 462.484375 432.5625 460.847656 432.605469 459.203125 C 432.652344 457.5625 432.648438 455.921875 432.589844 454.28125 C 432.53125 452.640625 432.421875 451 432.261719 449.367188 C 432.101562 447.730469 431.886719 446.105469 431.625 444.484375 C 431.359375 442.863281 431.046875 441.25 430.679688 439.648438 C 430.316406 438.046875 429.898438 436.460938 429.433594 434.886719 C 428.96875 433.308594 428.453125 431.75 427.890625 430.207031 C 427.328125 428.667969 426.714844 427.144531 426.054688 425.640625 C 425.394531 424.136719 424.6875 422.652344 423.933594 421.195312 C 423.183594 419.734375 422.382812 418.300781 421.539062 416.890625 C 420.695312 415.484375 419.808594 414.101562 418.875 412.75 C 417.945312 411.394531 416.972656 410.074219 415.957031 408.78125 C 414.945312 407.488281 413.890625 406.230469 412.796875 405.007812 C 411.703125 403.78125 410.570312 402.59375 409.402344 401.4375 C 408.234375 400.285156 407.03125 399.167969 405.789062 398.089844 C 404.550781 397.011719 403.277344 395.976562 401.972656 394.976562 C 400.667969 393.980469 399.335938 393.023438 397.96875 392.109375 C 396.605469 391.199219 395.210938 390.328125 393.792969 389.503906 C 392.371094 388.675781 390.929688 387.898438 389.460938 387.164062 C 387.988281 386.429688 386.5 385.742188 384.988281 385.101562 C 383.476562 384.460938 381.945312 383.867188 380.394531 383.324219 C 378.84375 382.78125 377.277344 382.285156 375.699219 381.839844 C 374.117188 381.398438 372.523438 381 370.917969 380.65625 C 369.3125 380.3125 367.695312 380.019531 366.074219 379.777344 C 364.449219 379.535156 362.816406 379.34375 361.179688 379.203125 C 359.542969 379.0625 357.90625 378.976562 356.261719 378.9375 C 354.621094 378.902344 352.980469 378.917969 351.339844 378.984375 C 349.699219 379.050781 348.0625 379.171875 346.425781 379.34375 C 344.792969 379.511719 343.167969 379.734375 341.546875 380.007812 C 339.929688 380.28125 338.320312 380.605469 336.71875 380.980469 C 335.121094 381.355469 333.535156 381.777344 331.960938 382.253906 C 330.390625 382.726562 328.835938 383.25 327.296875 383.824219 C 325.757812 384.398438 324.238281 385.019531 322.738281 385.6875 C 321.238281 386.355469 319.757812 387.070312 318.304688 387.832031 C 316.847656 388.59375 315.417969 389.402344 314.015625 390.253906 C 312.613281 391.105469 311.234375 392 309.886719 392.941406 C 308.539062 393.878906 307.222656 394.859375 305.9375 395.882812 C 304.652344 396.902344 303.398438 397.964844 302.179688 399.066406 C 300.960938 400.167969 299.78125 401.304688 298.632812 402.480469 C 297.484375 403.65625 296.378906 404.867188 295.308594 406.113281 C 294.234375 407.359375 293.207031 408.636719 292.214844 409.945312 C 291.226562 411.257812 290.277344 412.597656 289.375 413.96875 C 288.46875 415.335938 287.605469 416.734375 286.789062 418.160156 C 285.972656 419.585938 285.199219 421.035156 284.476562 422.507812 C 283.75 423.980469 283.070312 425.472656 282.4375 426.992188 C 281.808594 428.507812 281.222656 430.042969 280.6875 431.59375 C 280.15625 433.148438 279.667969 434.714844 279.234375 436.296875 C 278.796875 437.882812 278.414062 439.476562 278.078125 441.085938 C 277.742188 442.695312 277.457031 444.308594 277.226562 445.9375 C 276.992188 447.5625 276.808594 449.195312 276.679688 450.832031 C 276.550781 452.46875 276.472656 454.109375 276.445312 455.75 C 276.417969 457.390625 276.441406 459.03125 276.519531 460.671875 C 276.597656 462.3125 276.726562 463.949219 276.90625 465.582031 C 277.085938 467.214844 277.316406 468.839844 277.597656 470.457031 C 277.882812 472.078125 278.214844 473.683594 278.597656 475.28125 C 278.984375 476.878906 279.417969 478.460938 279.902344 480.03125 C 280.382812 481.601562 280.917969 483.152344 281.5 484.6875 C 282.082031 486.222656 282.710938 487.742188 283.386719 489.238281 C 284.066406 490.734375 284.789062 492.207031 285.558594 493.65625 C 286.328125 495.105469 287.144531 496.53125 288.003906 497.929688 C 288.542969 498.804688 288.992188 499.722656 289.347656 500.683594 C 289.707031 501.644531 289.964844 502.632812 290.128906 503.644531 C 290.292969 504.65625 290.355469 505.675781 290.316406 506.699219 C 290.28125 507.726562 290.140625 508.738281 289.90625 509.734375 C 289.667969 510.734375 289.335938 511.699219 288.910156 512.632812 C 288.480469 513.5625 287.96875 514.445312 287.367188 515.277344 C 286.765625 516.109375 286.089844 516.875 285.339844 517.570312 C 284.585938 518.269531 283.773438 518.886719 282.902344 519.425781 C 282.027344 519.964844 281.109375 520.414062 280.148438 520.769531 C 279.1875 521.125 278.199219 521.386719 277.1875 521.550781 C 276.175781 521.714844 275.15625 521.777344 274.132812 521.738281 C 273.105469 521.699219 272.09375 521.5625 271.097656 521.324219 C 270.097656 521.089844 269.132812 520.757812 268.199219 520.328125 C 267.269531 519.902344 266.386719 519.386719 265.554688 518.789062 C 264.722656 518.1875 263.957031 517.511719 263.261719 516.757812 C 262.5625 516.007812 261.945312 515.195312 261.40625 514.320312 C 260.304688 512.53125 259.253906 510.707031 258.253906 508.855469 C 257.257812 507.003906 256.316406 505.125 255.425781 503.21875 C 254.535156 501.3125 253.703125 499.378906 252.925781 497.425781 C 252.148438 495.472656 251.425781 493.496094 250.765625 491.5 C 250.101562 489.503906 249.496094 487.488281 248.949219 485.457031 C 248.398438 483.425781 247.910156 481.382812 247.484375 479.320312 C 247.054688 477.261719 246.683594 475.191406 246.375 473.113281 C 246.0625 471.03125 245.816406 468.941406 245.625 466.847656 C 245.4375 464.753906 245.308594 462.652344 245.238281 460.550781 C 245.171875 458.449219 245.164062 456.34375 245.21875 454.242188 C 245.269531 452.140625 245.382812 450.039062 245.558594 447.941406 C 245.734375 445.847656 245.96875 443.757812 246.261719 441.675781 C 246.558594 439.589844 246.914062 437.519531 247.328125 435.457031 C 247.742188 433.394531 248.21875 431.34375 248.75 429.308594 C 249.28125 427.273438 249.875 425.257812 250.523438 423.257812 C 251.171875 421.253906 251.878906 419.273438 252.644531 417.3125 C 253.40625 415.355469 254.226562 413.417969 255.101562 411.503906 C 255.980469 409.59375 256.910156 407.707031 257.894531 405.847656 C 258.878906 403.988281 259.914062 402.160156 261.003906 400.359375 C 262.09375 398.558594 263.234375 396.792969 264.429688 395.058594 C 265.621094 393.328125 266.859375 391.628906 268.152344 389.96875 C 269.441406 388.304688 270.777344 386.683594 272.160156 385.097656 C 273.546875 383.511719 274.972656 381.96875 276.445312 380.46875 C 277.917969 378.964844 279.433594 377.507812 280.992188 376.09375 C 282.546875 374.675781 284.144531 373.308594 285.78125 371.988281 C 287.417969 370.664062 289.089844 369.390625 290.800781 368.164062 C 292.507812 366.9375 294.253906 365.761719 296.03125 364.636719 C 297.808594 363.511719 299.613281 362.4375 301.453125 361.417969 C 303.292969 360.394531 305.160156 359.429688 307.054688 358.515625 C 308.953125 357.601562 310.871094 356.746094 312.816406 355.941406 C 314.761719 355.140625 316.726562 354.394531 318.714844 353.707031 C 320.703125 353.015625 322.707031 352.386719 324.734375 351.8125 C 326.757812 351.238281 328.796875 350.726562 330.847656 350.269531 C 332.902344 349.816406 334.96875 349.417969 337.046875 349.082031 C 339.121094 348.746094 341.207031 348.46875 343.300781 348.253906 C 345.390625 348.039062 347.488281 347.882812 349.589844 347.789062 C 351.691406 347.695312 353.792969 347.660156 355.898438 347.6875 C 358 347.710938 360.101562 347.800781 362.203125 347.949219 C 364.300781 348.097656 366.390625 348.304688 368.480469 348.574219 C 370.566406 348.839844 372.640625 349.167969 374.710938 349.558594 C 376.777344 349.945312 378.832031 350.394531 380.875 350.902344 C 382.914062 351.410156 384.941406 351.976562 386.949219 352.597656 C 388.957031 353.222656 390.949219 353.902344 392.917969 354.644531 C 394.886719 355.382812 396.835938 356.175781 398.757812 357.027344 C 400.683594 357.878906 402.578125 358.785156 404.449219 359.746094 C 406.324219 360.707031 408.164062 361.722656 409.976562 362.789062 C 411.789062 363.855469 413.570312 364.972656 415.320312 366.144531 C 417.066406 367.3125 418.78125 368.53125 420.460938 369.800781 C 422.136719 371.070312 423.777344 372.386719 425.378906 373.75 C 426.980469 375.113281 428.542969 376.523438 430.0625 377.976562 C 431.585938 379.429688 433.0625 380.925781 434.496094 382.464844 C 435.929688 384.003906 437.320312 385.582031 438.664062 387.203125 C 440.007812 388.820312 441.300781 390.476562 442.550781 392.171875 C 443.796875 393.863281 444.996094 395.59375 446.140625 397.355469 C 447.289062 399.117188 448.386719 400.914062 449.429688 402.738281 C 450.476562 404.566406 451.464844 406.421875 452.402344 408.304688 C 453.339844 410.1875 454.222656 412.097656 455.050781 414.03125 C 455.875 415.964844 456.648438 417.921875 457.359375 419.902344 C 458.074219 421.878906 458.730469 423.878906 459.328125 425.894531 C 459.929688 427.910156 460.46875 429.941406 460.949219 431.992188 C 461.429688 434.039062 461.855469 436.097656 462.214844 438.171875 C 462.578125 440.242188 462.882812 442.324219 463.125 444.414062 C 463.367188 446.503906 463.546875 448.597656 463.667969 450.699219 C 463.789062 452.800781 463.851562 454.902344 463.851562 457.003906 C 463.851562 462.796875 463.402344 468.550781 462.5 474.269531 C 464.34375 474.703125 466.167969 475.21875 467.964844 475.816406 C 469.765625 476.417969 471.53125 477.097656 473.269531 477.855469 C 475.007812 478.617188 476.707031 479.453125 478.367188 480.367188 C 480.027344 481.28125 481.640625 482.269531 483.214844 483.332031 C 484.785156 484.390625 486.304688 485.523438 487.769531 486.722656 C 489.238281 487.921875 490.648438 489.1875 492 490.515625 C 493.355469 491.84375 494.644531 493.230469 495.871094 494.675781 C 497.097656 496.121094 498.253906 497.621094 499.34375 499.171875 C 500.433594 500.722656 501.453125 502.320312 502.398438 503.964844 C 503.34375 505.605469 504.210938 507.289062 505 509.011719 C 505.792969 510.734375 506.503906 512.492188 507.136719 514.277344 C 507.769531 516.066406 508.316406 517.878906 508.785156 519.714844 C 509.25 521.554688 509.632812 523.40625 509.929688 525.28125 C 510.226562 527.152344 510.441406 529.035156 510.566406 530.925781 C 510.691406 532.816406 510.734375 534.710938 510.6875 536.605469 C 510.640625 538.5 510.511719 540.390625 510.292969 542.273438 C 510.074219 544.15625 509.769531 546.027344 509.382812 547.882812 C 508.996094 549.738281 508.523438 551.570312 507.96875 553.382812 C 507.414062 555.199219 506.777344 556.980469 506.058594 558.734375 C 505.34375 560.492188 504.546875 562.210938 503.671875 563.890625 C 502.796875 565.574219 501.851562 567.214844 500.828125 568.808594 C 499.804688 570.40625 498.710938 571.953125 497.546875 573.449219 C 496.382812 574.945312 495.152344 576.386719 493.859375 577.769531 C 492.5625 579.152344 491.207031 580.476562 489.792969 581.738281 C 488.375 583 486.90625 584.195312 485.382812 585.320312 C 483.859375 586.449219 482.285156 587.503906 480.667969 588.488281 C 479.046875 589.472656 477.382812 590.382812 475.679688 591.214844 C 473.976562 592.046875 472.242188 592.800781 470.46875 593.476562 C 468.699219 594.152344 466.898438 594.742188 465.074219 595.253906 C 463.246094 595.765625 461.402344 596.191406 459.539062 596.535156 C 457.671875 596.878906 455.796875 597.136719 453.910156 597.308594 C 452.019531 597.480469 450.128906 597.566406 448.234375 597.566406 Z M 448.234375 597.566406 " fill-opacity="1" fill-rule="nonzero"/></g><path fill="#ffffff" d="M 459.195312 501.125 C 458.207031 501.121094 457.230469 501.027344 456.265625 500.84375 C 455.296875 500.65625 454.351562 500.378906 453.4375 500.015625 C 452.523438 499.648438 451.648438 499.203125 450.816406 498.671875 C 449.984375 498.140625 449.210938 497.539062 448.496094 496.863281 C 447.777344 496.183594 447.132812 495.445312 446.554688 494.648438 C 445.976562 493.847656 445.480469 493 445.0625 492.109375 C 444.644531 491.214844 444.316406 490.289062 444.074219 489.332031 C 443.835938 488.378906 443.683594 487.40625 443.625 486.421875 C 443.570312 485.4375 443.605469 484.457031 443.730469 483.480469 C 443.859375 482.503906 444.078125 481.546875 444.386719 480.609375 C 444.695312 479.671875 445.089844 478.773438 445.570312 477.914062 C 446.050781 477.050781 446.605469 476.242188 447.238281 475.484375 C 447.871094 474.730469 448.566406 474.039062 449.332031 473.414062 C 450.09375 472.792969 450.910156 472.246094 451.777344 471.773438 C 452.644531 471.304688 453.546875 470.921875 454.488281 470.621094 C 455.425781 470.324219 456.386719 470.117188 457.363281 470 C 459.570312 469.730469 461.757812 469.367188 463.929688 468.910156 C 466.101562 468.449219 468.25 467.898438 470.371094 467.25 C 472.496094 466.601562 474.585938 465.863281 476.644531 465.03125 C 478.703125 464.203125 480.722656 463.28125 482.699219 462.273438 C 484.679688 461.269531 486.609375 460.175781 488.492188 459 C 490.375 457.824219 492.203125 456.566406 493.976562 455.230469 C 495.746094 453.890625 497.457031 452.480469 499.105469 450.992188 C 500.757812 449.507812 502.335938 447.953125 503.847656 446.328125 C 505.363281 444.703125 506.800781 443.011719 508.164062 441.261719 C 509.527344 439.511719 510.816406 437.703125 512.019531 435.839844 C 513.226562 433.976562 514.347656 432.0625 515.386719 430.101562 C 516.425781 428.140625 517.378906 426.136719 518.242188 424.089844 C 519.105469 422.042969 519.875 419.964844 520.554688 417.851562 C 521.238281 415.738281 521.824219 413.601562 522.316406 411.433594 C 522.8125 409.269531 523.210938 407.089844 523.511719 404.890625 C 523.8125 402.691406 524.019531 400.480469 524.128906 398.265625 C 524.238281 396.046875 524.25 393.828125 524.164062 391.609375 C 524.078125 389.390625 523.894531 387.183594 523.617188 384.980469 C 523.335938 382.777344 522.960938 380.589844 522.492188 378.421875 C 522.019531 376.25 521.457031 374.105469 520.796875 371.988281 C 520.136719 369.867188 519.386719 367.78125 518.546875 365.726562 C 517.703125 363.671875 516.773438 361.65625 515.757812 359.683594 C 514.738281 357.710938 513.636719 355.785156 512.449219 353.910156 C 511.261719 352.035156 509.996094 350.214844 508.652344 348.449219 C 507.304688 346.683594 505.882812 344.980469 504.390625 343.339844 C 502.894531 341.699219 501.328125 340.125 499.695312 338.621094 C 498.0625 337.117188 496.367188 335.6875 494.609375 334.332031 C 492.851562 332.976562 491.035156 331.703125 489.164062 330.503906 C 487.296875 329.308594 485.375 328.195312 483.410156 327.167969 C 481.441406 326.140625 479.433594 325.199219 477.382812 324.347656 C 475.332031 323.496094 473.25 322.734375 471.132812 322.066406 C 469.015625 321.394531 466.875 320.820312 464.707031 320.339844 C 462.539062 319.855469 460.355469 319.46875 458.15625 319.179688 C 455.953125 318.890625 453.746094 318.695312 451.527344 318.597656 C 449.308594 318.5 447.089844 318.5 444.871094 318.597656 C 442.65625 318.695312 440.445312 318.890625 438.246094 319.179688 C 436.042969 319.472656 433.859375 319.859375 431.691406 320.339844 C 429.527344 320.824219 427.382812 321.398438 425.265625 322.070312 C 423.152344 322.738281 421.066406 323.5 419.019531 324.351562 C 416.96875 325.207031 414.960938 326.144531 412.992188 327.175781 C 411.023438 328.203125 409.105469 329.316406 407.234375 330.511719 C 405.367188 331.707031 403.550781 332.984375 401.792969 334.339844 C 400.035156 335.695312 398.339844 337.125 396.707031 338.628906 C 395.074219 340.132812 393.511719 341.707031 392.015625 343.347656 C 390.519531 344.988281 389.097656 346.691406 387.753906 348.457031 C 386.40625 350.222656 385.140625 352.042969 383.953125 353.921875 C 382.769531 355.796875 381.667969 357.722656 380.648438 359.695312 C 379.632812 361.667969 378.703125 363.683594 377.859375 365.734375 C 377.472656 366.6875 376.996094 367.589844 376.429688 368.445312 C 375.867188 369.304688 375.222656 370.097656 374.5 370.824219 C 373.777344 371.554688 372.992188 372.207031 372.140625 372.78125 C 371.292969 373.355469 370.394531 373.84375 369.445312 374.242188 C 368.5 374.636719 367.523438 374.9375 366.519531 375.144531 C 365.511719 375.347656 364.496094 375.453125 363.46875 375.457031 C 362.445312 375.460938 361.425781 375.367188 360.417969 375.171875 C 359.410156 374.976562 358.433594 374.683594 357.484375 374.292969 C 356.535156 373.902344 355.628906 373.425781 354.773438 372.859375 C 353.917969 372.292969 353.128906 371.648438 352.398438 370.921875 C 351.671875 370.199219 351.019531 369.414062 350.449219 368.5625 C 349.875 367.710938 349.390625 366.8125 348.996094 365.863281 C 348.597656 364.917969 348.300781 363.941406 348.097656 362.933594 C 347.894531 361.929688 347.789062 360.910156 347.789062 359.886719 C 347.785156 358.859375 347.882812 357.84375 348.082031 356.835938 C 348.277344 355.828125 348.574219 354.851562 348.964844 353.902344 C 349.554688 352.453125 350.179688 351.015625 350.835938 349.59375 C 351.492188 348.171875 352.179688 346.765625 352.898438 345.375 C 353.613281 343.984375 354.363281 342.605469 355.140625 341.25 C 355.917969 339.890625 356.726562 338.546875 357.5625 337.226562 C 358.398438 335.902344 359.265625 334.597656 360.15625 333.3125 C 361.050781 332.023438 361.972656 330.757812 362.921875 329.515625 C 363.871094 328.269531 364.847656 327.046875 365.851562 325.84375 C 366.851562 324.640625 367.882812 323.460938 368.9375 322.300781 C 369.992188 321.144531 371.070312 320.011719 372.171875 318.902344 C 373.277344 317.789062 374.40625 316.707031 375.558594 315.644531 C 376.707031 314.582031 377.882812 313.546875 379.082031 312.539062 C 380.277344 311.53125 381.496094 310.546875 382.734375 309.589844 C 383.976562 308.632812 385.234375 307.707031 386.515625 306.804688 C 387.796875 305.90625 389.097656 305.03125 390.417969 304.1875 C 391.734375 303.34375 393.070312 302.53125 394.425781 301.746094 C 395.78125 300.957031 397.152344 300.203125 398.539062 299.476562 C 399.925781 298.753906 401.332031 298.058594 402.75 297.394531 C 404.167969 296.730469 405.597656 296.097656 407.042969 295.496094 C 408.488281 294.894531 409.949219 294.328125 411.417969 293.789062 C 412.890625 293.25 414.371094 292.746094 415.863281 292.273438 C 417.355469 291.800781 418.859375 291.363281 420.371094 290.957031 C 421.882812 290.550781 423.402344 290.175781 424.933594 289.835938 C 426.460938 289.496094 427.996094 289.191406 429.539062 288.917969 C 431.078125 288.644531 432.625 288.40625 434.179688 288.199219 C 435.730469 287.996094 437.289062 287.824219 438.847656 287.6875 C 440.40625 287.550781 441.96875 287.449219 443.535156 287.378906 C 445.097656 287.3125 446.664062 287.277344 448.230469 287.277344 C 449.792969 287.277344 451.359375 287.3125 452.921875 287.378906 C 454.488281 287.449219 456.050781 287.550781 457.609375 287.6875 C 459.167969 287.824219 460.726562 287.996094 462.277344 288.203125 C 463.832031 288.40625 465.378906 288.644531 466.917969 288.917969 C 468.460938 289.191406 469.996094 289.5 471.523438 289.839844 C 473.050781 290.179688 474.574219 290.550781 476.085938 290.960938 C 477.597656 291.367188 479.097656 291.804688 480.59375 292.277344 C 482.085938 292.75 483.566406 293.253906 485.039062 293.792969 C 486.507812 294.332031 487.964844 294.898438 489.410156 295.5 C 490.859375 296.101562 492.289062 296.734375 493.707031 297.398438 C 495.125 298.0625 496.527344 298.757812 497.914062 299.484375 C 499.304688 300.210938 500.675781 300.964844 502.027344 301.75 C 503.382812 302.535156 504.71875 303.351562 506.039062 304.195312 C 507.359375 305.039062 508.65625 305.910156 509.9375 306.8125 C 511.21875 307.714844 512.480469 308.640625 513.71875 309.597656 C 514.957031 310.554688 516.175781 311.535156 517.375 312.546875 C 518.570312 313.554688 519.746094 314.589844 520.898438 315.652344 C 522.046875 316.714844 523.175781 317.796875 524.28125 318.910156 C 525.382812 320.019531 526.464844 321.152344 527.515625 322.3125 C 528.570312 323.46875 529.601562 324.648438 530.601562 325.851562 C 531.605469 327.054688 532.582031 328.277344 533.53125 329.523438 C 534.480469 330.769531 535.402344 332.035156 536.292969 333.320312 C 537.1875 334.605469 538.054688 335.910156 538.890625 337.234375 C 539.726562 338.558594 540.53125 339.898438 541.3125 341.257812 C 542.089844 342.617188 542.835938 343.992188 543.554688 345.382812 C 544.269531 346.777344 544.957031 348.183594 545.613281 349.605469 C 546.269531 351.027344 546.894531 352.460938 547.488281 353.910156 C 548.078125 355.359375 548.640625 356.820312 549.167969 358.296875 C 549.699219 359.769531 550.195312 361.253906 550.660156 362.75 C 551.125 364.246094 551.554688 365.75 551.953125 367.265625 C 552.351562 368.777344 552.714844 370.300781 553.046875 371.832031 C 553.378906 373.363281 553.675781 374.898438 553.941406 376.441406 C 554.203125 377.984375 554.433594 379.535156 554.628906 381.085938 C 554.828125 382.640625 554.988281 384.195312 555.117188 385.757812 C 555.246094 387.316406 555.339844 388.882812 555.398438 390.445312 C 555.457031 392.011719 555.484375 393.574219 555.472656 395.140625 C 555.464844 396.707031 555.421875 398.273438 555.34375 399.835938 C 555.265625 401.398438 555.15625 402.960938 555.011719 404.519531 C 554.863281 406.078125 554.683594 407.632812 554.46875 409.183594 C 554.257812 410.734375 554.007812 412.28125 553.726562 413.820312 C 553.445312 415.363281 553.128906 416.894531 552.78125 418.421875 C 552.433594 419.949219 552.050781 421.464844 551.636719 422.976562 C 551.21875 424.484375 550.773438 425.984375 550.289062 427.476562 C 549.808594 428.964844 549.296875 430.445312 548.75 431.914062 C 548.203125 433.378906 547.628906 434.835938 547.019531 436.277344 C 546.410156 437.71875 545.765625 439.148438 545.09375 440.5625 C 544.421875 441.976562 543.722656 443.375 542.988281 444.757812 C 542.253906 446.140625 541.492188 447.507812 540.699219 448.859375 C 539.90625 450.210938 539.082031 451.542969 538.230469 452.855469 C 537.378906 454.167969 536.5 455.464844 535.589844 456.738281 C 534.683594 458.015625 533.746094 459.269531 532.785156 460.503906 C 531.820312 461.738281 530.832031 462.953125 529.816406 464.144531 C 528.800781 465.335938 527.757812 466.503906 526.691406 467.648438 C 525.621094 468.792969 524.53125 469.914062 523.414062 471.011719 C 522.296875 472.109375 521.15625 473.183594 519.992188 474.230469 C 518.828125 475.277344 517.644531 476.300781 516.4375 477.296875 C 515.226562 478.292969 513.996094 479.261719 512.746094 480.203125 C 511.496094 481.144531 510.226562 482.058594 508.933594 482.945312 C 507.644531 483.832031 506.335938 484.691406 505.007812 485.519531 C 503.679688 486.347656 502.332031 487.148438 500.96875 487.917969 C 499.605469 488.6875 498.226562 489.425781 496.828125 490.136719 C 495.433594 490.847656 494.023438 491.523438 492.597656 492.171875 C 491.171875 492.820312 489.734375 493.4375 488.28125 494.023438 C 486.828125 494.605469 485.363281 495.160156 483.886719 495.679688 C 482.410156 496.199219 480.921875 496.6875 479.425781 497.144531 C 477.925781 497.601562 476.421875 498.023438 474.902344 498.410156 C 473.386719 498.800781 471.863281 499.15625 470.332031 499.480469 C 468.796875 499.804688 467.257812 500.09375 465.714844 500.347656 C 464.171875 500.601562 462.621094 500.824219 461.066406 501.011719 C 460.445312 501.089844 459.820312 501.125 459.195312 501.125 Z M 459.195312 501.125 " fill-opacity="1" fill-rule="nonzero"/><g clip-path="url(#c275e3777a)"><path fill="#ffffff" d="M 448.234375 268.550781 C 447.207031 268.550781 446.191406 268.449219 445.1875 268.25 C 444.179688 268.050781 443.203125 267.753906 442.257812 267.359375 C 441.308594 266.96875 440.410156 266.488281 439.558594 265.917969 C 438.703125 265.347656 437.917969 264.699219 437.191406 263.972656 C 436.464844 263.25 435.820312 262.460938 435.25 261.609375 C 434.679688 260.753906 434.199219 259.855469 433.804688 258.90625 C 433.414062 257.960938 433.117188 256.984375 432.917969 255.976562 C 432.714844 254.972656 432.617188 253.957031 432.617188 252.933594 L 432.617188 227.9375 C 432.617188 226.914062 432.71875 225.898438 432.917969 224.894531 C 433.117188 223.890625 433.414062 222.914062 433.808594 221.964844 C 434.203125 221.019531 434.683594 220.121094 435.253906 219.269531 C 435.824219 218.417969 436.46875 217.628906 437.195312 216.90625 C 437.921875 216.179688 438.710938 215.535156 439.5625 214.964844 C 440.414062 214.394531 441.3125 213.914062 442.261719 213.523438 C 443.207031 213.132812 444.183594 212.835938 445.1875 212.636719 C 446.195312 212.4375 447.207031 212.335938 448.234375 212.335938 C 449.257812 212.335938 450.273438 212.4375 451.277344 212.636719 C 452.285156 212.835938 453.261719 213.132812 454.207031 213.523438 C 455.152344 213.914062 456.054688 214.394531 456.90625 214.964844 C 457.757812 215.535156 458.546875 216.179688 459.273438 216.90625 C 459.996094 217.628906 460.644531 218.417969 461.214844 219.269531 C 461.785156 220.121094 462.265625 221.019531 462.660156 221.964844 C 463.050781 222.914062 463.347656 223.890625 463.550781 224.894531 C 463.75 225.898438 463.851562 226.914062 463.851562 227.9375 L 463.851562 252.933594 C 463.851562 253.957031 463.75 254.972656 463.550781 255.976562 C 463.351562 256.984375 463.054688 257.960938 462.660156 258.90625 C 462.269531 259.855469 461.789062 260.753906 461.21875 261.609375 C 460.648438 262.460938 460 263.25 459.277344 263.972656 C 458.550781 264.699219 457.761719 265.347656 456.910156 265.917969 C 456.058594 266.484375 455.15625 266.96875 454.210938 267.359375 C 453.261719 267.753906 452.285156 268.050781 451.28125 268.25 C 450.273438 268.449219 449.257812 268.550781 448.234375 268.550781 Z M 448.234375 268.550781 " fill-opacity="1" fill-rule="nonzero"/></g><path fill="#ffffff" d="M 614.828125 410.148438 L 589.832031 410.148438 C 588.808594 410.148438 587.792969 410.050781 586.785156 409.851562 C 585.78125 409.648438 584.804688 409.355469 583.855469 408.960938 C 582.910156 408.570312 582.007812 408.085938 581.15625 407.519531 C 580.304688 406.949219 579.515625 406.300781 578.789062 405.574219 C 578.066406 404.851562 577.417969 404.0625 576.847656 403.210938 C 576.277344 402.355469 575.796875 401.457031 575.40625 400.507812 C 575.011719 399.5625 574.714844 398.585938 574.515625 397.578125 C 574.316406 396.574219 574.214844 395.558594 574.214844 394.53125 C 574.214844 393.507812 574.316406 392.492188 574.515625 391.484375 C 574.714844 390.480469 575.011719 389.503906 575.40625 388.554688 C 575.796875 387.609375 576.277344 386.707031 576.847656 385.855469 C 577.417969 385.003906 578.066406 384.214844 578.789062 383.488281 C 579.515625 382.761719 580.304688 382.117188 581.15625 381.546875 C 582.007812 380.976562 582.910156 380.496094 583.855469 380.101562 C 584.804688 379.710938 585.78125 379.414062 586.785156 379.214844 C 587.792969 379.015625 588.808594 378.914062 589.832031 378.914062 L 614.828125 378.914062 C 615.851562 378.914062 616.867188 379.015625 617.875 379.214844 C 618.878906 379.414062 619.855469 379.710938 620.804688 380.101562 C 621.75 380.496094 622.652344 380.976562 623.503906 381.546875 C 624.355469 382.117188 625.144531 382.761719 625.871094 383.488281 C 626.597656 384.214844 627.242188 385.003906 627.8125 385.855469 C 628.382812 386.707031 628.863281 387.609375 629.257812 388.554688 C 629.648438 389.503906 629.945312 390.480469 630.144531 391.484375 C 630.34375 392.492188 630.445312 393.507812 630.445312 394.53125 C 630.445312 395.558594 630.34375 396.574219 630.144531 397.578125 C 629.945312 398.585938 629.648438 399.5625 629.257812 400.507812 C 628.863281 401.457031 628.382812 402.355469 627.8125 403.210938 C 627.242188 404.0625 626.597656 404.851562 625.871094 405.574219 C 625.144531 406.300781 624.355469 406.949219 623.503906 407.519531 C 622.652344 408.085938 621.75 408.570312 620.804688 408.960938 C 619.855469 409.355469 618.878906 409.648438 617.875 409.851562 C 616.867188 410.050781 615.851562 410.148438 614.828125 410.148438 Z M 614.828125 410.148438 " fill-opacity="1" fill-rule="nonzero"/><path fill="#ffffff" d="M 548.359375 310.027344 C 547.589844 310.023438 546.828125 309.96875 546.066406 309.855469 C 545.308594 309.742188 544.558594 309.574219 543.824219 309.351562 C 543.089844 309.128906 542.375 308.855469 541.683594 308.523438 C 540.988281 308.195312 540.320312 307.820312 539.683594 307.390625 C 539.042969 306.964844 538.441406 306.496094 537.871094 305.980469 C 537.300781 305.464844 536.773438 304.910156 536.289062 304.316406 C 535.800781 303.722656 535.359375 303.09375 534.964844 302.4375 C 534.570312 301.777344 534.226562 301.09375 533.929688 300.382812 C 533.636719 299.675781 533.398438 298.945312 533.210938 298.203125 C 533.023438 297.457031 532.894531 296.703125 532.816406 295.9375 C 532.742188 295.175781 532.722656 294.410156 532.761719 293.640625 C 532.800781 292.875 532.894531 292.113281 533.042969 291.359375 C 533.191406 290.609375 533.398438 289.871094 533.65625 289.148438 C 533.914062 288.421875 534.222656 287.722656 534.585938 287.046875 C 534.949219 286.367188 535.359375 285.722656 535.816406 285.105469 C 536.273438 284.488281 536.773438 283.90625 537.316406 283.363281 L 554.988281 265.691406 C 555.714844 264.96875 556.5 264.320312 557.355469 263.75 C 558.207031 263.179688 559.105469 262.695312 560.054688 262.304688 C 561.003906 261.910156 561.980469 261.613281 562.984375 261.414062 C 563.992188 261.210938 565.007812 261.113281 566.03125 261.113281 C 567.058594 261.113281 568.074219 261.210938 569.082031 261.410156 C 570.085938 261.613281 571.0625 261.90625 572.011719 262.300781 C 572.960938 262.691406 573.859375 263.171875 574.710938 263.742188 C 575.566406 264.3125 576.355469 264.960938 577.078125 265.6875 C 577.804688 266.410156 578.453125 267.199219 579.023438 268.054688 C 579.59375 268.90625 580.074219 269.808594 580.464844 270.753906 C 580.859375 271.703125 581.15625 272.679688 581.355469 273.683594 C 581.554688 274.691406 581.652344 275.707031 581.652344 276.734375 C 581.652344 277.757812 581.554688 278.773438 581.351562 279.78125 C 581.152344 280.785156 580.855469 281.765625 580.460938 282.710938 C 580.070312 283.660156 579.585938 284.558594 579.015625 285.410156 C 578.445312 286.265625 577.800781 287.054688 577.074219 287.777344 L 559.402344 305.449219 C 557.9375 306.917969 556.25 308.046875 554.335938 308.839844 C 552.421875 309.632812 550.429688 310.027344 548.359375 310.027344 Z M 548.359375 310.027344 " fill-opacity="1" fill-rule="nonzero"/><path fill="#ffffff" d="M 566.03125 527.945312 C 563.960938 527.949219 561.964844 527.554688 560.050781 526.761719 C 558.140625 525.96875 556.449219 524.839844 554.988281 523.371094 L 537.316406 505.699219 C 536.589844 504.972656 535.945312 504.183594 535.375 503.332031 C 534.804688 502.480469 534.324219 501.582031 533.929688 500.632812 C 533.539062 499.6875 533.242188 498.710938 533.042969 497.703125 C 532.84375 496.699219 532.742188 495.683594 532.742188 494.65625 C 532.742188 493.632812 532.84375 492.617188 533.042969 491.609375 C 533.242188 490.605469 533.539062 489.628906 533.929688 488.679688 C 534.324219 487.734375 534.804688 486.832031 535.375 485.980469 C 535.945312 485.128906 536.589844 484.339844 537.316406 483.613281 C 538.042969 482.890625 538.828125 482.242188 539.683594 481.671875 C 540.535156 481.101562 541.433594 480.621094 542.382812 480.230469 C 543.328125 479.835938 544.304688 479.539062 545.3125 479.339844 C 546.316406 479.140625 547.332031 479.039062 548.359375 479.039062 C 549.382812 479.039062 550.398438 479.140625 551.40625 479.339844 C 552.410156 479.539062 553.386719 479.835938 554.335938 480.230469 C 555.28125 480.621094 556.183594 481.101562 557.035156 481.671875 C 557.886719 482.242188 558.675781 482.890625 559.402344 483.613281 L 577.074219 501.285156 C 577.617188 501.828125 578.117188 502.410156 578.574219 503.027344 C 579.03125 503.644531 579.441406 504.289062 579.800781 504.96875 C 580.164062 505.644531 580.476562 506.34375 580.734375 507.066406 C 580.992188 507.792969 581.195312 508.53125 581.347656 509.28125 C 581.496094 510.035156 581.589844 510.796875 581.628906 511.5625 C 581.664062 512.328125 581.644531 513.09375 581.570312 513.859375 C 581.496094 514.625 581.363281 515.378906 581.179688 516.125 C 580.992188 516.867188 580.75 517.597656 580.457031 518.304688 C 580.164062 519.015625 579.820312 519.699219 579.425781 520.359375 C 579.03125 521.015625 578.589844 521.644531 578.101562 522.234375 C 577.613281 522.828125 577.085938 523.382812 576.515625 523.902344 C 575.949219 524.417969 575.34375 524.886719 574.707031 525.3125 C 574.066406 525.742188 573.402344 526.117188 572.707031 526.445312 C 572.011719 526.773438 571.296875 527.050781 570.5625 527.273438 C 569.828125 527.496094 569.082031 527.664062 568.320312 527.777344 C 567.5625 527.890625 566.796875 527.945312 566.03125 527.945312 Z M 566.03125 527.945312 " fill-opacity="1" fill-rule="nonzero"/><path fill="#ffffff" d="M 348.109375 310.027344 C 346.039062 310.027344 344.042969 309.632812 342.132812 308.839844 C 340.21875 308.046875 338.527344 306.917969 337.066406 305.449219 L 319.394531 287.777344 C 318.667969 287.050781 318.023438 286.265625 317.453125 285.410156 C 316.882812 284.558594 316.402344 283.660156 316.007812 282.710938 C 315.617188 281.765625 315.320312 280.789062 315.121094 279.78125 C 314.921875 278.777344 314.820312 277.761719 314.820312 276.734375 C 314.820312 275.710938 314.921875 274.695312 315.121094 273.6875 C 315.320312 272.683594 315.617188 271.707031 316.007812 270.757812 C 316.402344 269.8125 316.882812 268.910156 317.453125 268.058594 C 318.023438 267.207031 318.667969 266.417969 319.394531 265.691406 C 320.121094 264.96875 320.90625 264.320312 321.761719 263.75 C 322.613281 263.179688 323.511719 262.699219 324.460938 262.308594 C 325.40625 261.914062 326.382812 261.617188 327.390625 261.417969 C 328.394531 261.21875 329.410156 261.117188 330.4375 261.117188 C 331.460938 261.117188 332.476562 261.21875 333.484375 261.417969 C 334.488281 261.617188 335.464844 261.914062 336.414062 262.308594 C 337.359375 262.699219 338.261719 263.179688 339.113281 263.75 C 339.964844 264.320312 340.753906 264.96875 341.480469 265.691406 L 359.152344 283.363281 C 359.695312 283.90625 360.195312 284.488281 360.652344 285.105469 C 361.109375 285.722656 361.519531 286.367188 361.882812 287.046875 C 362.242188 287.722656 362.554688 288.421875 362.8125 289.148438 C 363.070312 289.871094 363.273438 290.609375 363.425781 291.359375 C 363.574219 292.113281 363.667969 292.875 363.707031 293.640625 C 363.742188 294.410156 363.726562 295.175781 363.648438 295.9375 C 363.574219 296.703125 363.441406 297.457031 363.257812 298.203125 C 363.070312 298.945312 362.828125 299.675781 362.535156 300.382812 C 362.242188 301.09375 361.898438 301.777344 361.503906 302.4375 C 361.109375 303.09375 360.667969 303.722656 360.179688 304.316406 C 359.691406 304.910156 359.164062 305.464844 358.597656 305.980469 C 358.027344 306.496094 357.421875 306.964844 356.785156 307.390625 C 356.144531 307.820312 355.480469 308.195312 354.785156 308.523438 C 354.089844 308.855469 353.375 309.128906 352.640625 309.351562 C 351.90625 309.574219 351.160156 309.742188 350.398438 309.855469 C 349.640625 309.96875 348.875 310.023438 348.109375 310.027344 Z M 348.109375 310.027344 " fill-opacity="1" fill-rule="nonzero"/></svg>