<svg xmlns="http://www.w3.org/2000/svg" xmlns:xlink="http://www.w3.org/1999/xlink" width="1080" zoomAndPan="magnify" viewBox="0 0 810 809.999993" height="1080" preserveAspectRatio="xMidYMid meet" version="1.0"><defs><clipPath id="5ae1854fc1"><path d="M 224 180.902344 L 620 180.902344 L 620 456 L 224 456 Z M 224 180.902344 " clip-rule="nonzero"/></clipPath></defs><rect x="-81" width="972" fill="#ffffff" y="-80.999999" height="971.999992" fill-opacity="1"/><rect x="-81" width="972" fill="#467892" y="-80.999999" height="971.999992" fill-opacity="1"/><path fill="#ffffff" d="M 424.5 533.839844 C 402.410156 533.839844 384.441406 515.933594 384.441406 493.925781 C 384.441406 475.933594 408.171875 440.34375 415.449219 429.867188 C 417.503906 426.902344 420.890625 425.132812 424.507812 425.132812 C 428.117188 425.132812 431.507812 426.902344 433.5625 429.867188 C 440.835938 440.347656 464.566406 475.933594 464.566406 493.925781 C 464.554688 515.933594 446.585938 533.839844 424.5 533.839844 Z M 424.5 456.273438 C 414.742188 472.007812 406.492188 488.199219 406.492188 493.925781 C 406.492188 503.777344 414.566406 511.789062 424.5 511.789062 C 434.429688 511.789062 442.511719 503.777344 442.511719 493.925781 C 442.503906 488.1875 434.253906 472.003906 424.5 456.273438 Z M 424.5 456.273438 " fill-opacity="1" fill-rule="nonzero"/><path fill="#ffffff" d="M 511.597656 620.5 C 489.507812 620.5 471.535156 602.59375 471.535156 580.585938 C 471.535156 562.585938 495.269531 527.003906 502.539062 516.527344 C 504.59375 513.5625 507.980469 511.792969 511.597656 511.792969 C 515.210938 511.792969 518.597656 513.5625 520.652344 516.527344 C 527.925781 527.003906 551.65625 562.585938 551.65625 580.585938 C 551.65625 602.59375 533.6875 620.5 511.597656 620.5 Z M 511.597656 542.929688 C 501.84375 558.664062 493.585938 574.851562 493.585938 580.582031 C 493.585938 590.433594 501.667969 598.441406 511.597656 598.441406 C 521.523438 598.441406 529.605469 590.433594 529.605469 580.582031 C 529.605469 574.847656 521.355469 558.65625 511.597656 542.929688 Z M 511.597656 542.929688 " fill-opacity="1" fill-rule="nonzero"/><path fill="#ffffff" d="M 339.164062 628.707031 C 317.074219 628.707031 299.101562 610.800781 299.101562 588.792969 C 299.101562 570.796875 322.832031 535.210938 330.105469 524.738281 C 332.167969 521.769531 335.554688 520 339.164062 520 C 342.773438 520 346.160156 521.769531 348.222656 524.738281 C 355.492188 535.210938 379.226562 570.796875 379.226562 588.792969 C 379.226562 610.800781 361.253906 628.707031 339.164062 628.707031 Z M 339.164062 551.144531 C 329.40625 566.875 321.15625 583.066406 321.15625 588.792969 C 321.15625 598.644531 329.230469 606.65625 339.164062 606.65625 C 349.097656 606.65625 357.175781 598.644531 357.175781 588.792969 C 357.175781 583.054688 348.917969 566.867188 339.164062 551.144531 Z M 339.164062 551.144531 " fill-opacity="1" fill-rule="nonzero"/><path fill="#ffffff" d="M 224.792969 561.027344 C 205.683594 561.027344 190.140625 545.535156 190.140625 526.496094 C 190.140625 511.253906 209.730469 481.847656 215.734375 473.199219 C 217.796875 470.234375 221.179688 468.464844 224.792969 468.464844 C 228.402344 468.464844 231.789062 470.234375 233.847656 473.199219 C 239.851562 481.847656 259.445312 511.253906 259.445312 526.496094 C 259.445312 545.535156 243.898438 561.027344 224.792969 561.027344 Z M 224.792969 499.777344 C 217.519531 511.828125 212.230469 522.785156 212.191406 526.496094 C 212.191406 533.375 217.839844 538.976562 224.792969 538.976562 C 231.742188 538.976562 237.394531 533.375 237.394531 526.496094 C 237.355469 522.785156 232.058594 511.820312 224.792969 499.777344 Z M 224.792969 499.777344 " fill-opacity="1" fill-rule="nonzero"/><g clip-path="url(#5ae1854fc1)"><path fill="#ffffff" d="M 482.082031 180.761719 C 424.042969 180.761719 373.132812 216.90625 353.421875 270.335938 C 343.523438 266.230469 334.714844 264.382812 320.125 264.382812 C 267.449219 264.382812 224.675781 307.238281 224.675781 359.828125 C 224.675781 412.503906 267.449219 455.277344 320.125 455.277344 L 363.828125 455.277344 C 370.707031 455.277344 376.410156 449.660156 376.410156 442.695312 C 376.410156 435.734375 370.703125 430.117188 363.828125 430.117188 L 320.125 430.117188 C 281.375 430.117188 249.835938 398.578125 249.835938 359.828125 C 249.835938 321.082031 281.375 289.542969 320.125 289.542969 C 335.222656 289.542969 340.339844 291.390625 355.351562 299.019531 C 355.433594 299.101562 355.433594 299.101562 355.433594 299.101562 C 355.933594 299.355469 356.441406 299.4375 356.941406 299.6875 C 357.277344 299.769531 357.527344 299.941406 357.863281 300.023438 C 357.945312 300.023438 357.945312 300.023438 358.027344 300.023438 C 358.449219 300.1875 358.785156 300.1875 359.203125 300.1875 C 359.539062 300.269531 359.957031 300.351562 360.378906 300.351562 C 360.796875 300.4375 361.296875 300.351562 361.71875 300.351562 C 362.054688 300.351562 362.390625 300.351562 362.808594 300.269531 C 363.226562 300.1875 363.644531 300.105469 364.148438 300.015625 C 364.484375 299.933594 364.820312 299.851562 365.15625 299.679688 C 365.574219 299.597656 365.910156 299.34375 366.332031 299.179688 C 366.667969 299.011719 367.003906 298.925781 367.339844 298.761719 C 367.757812 298.507812 368.09375 298.257812 368.429688 298.003906 C 368.683594 297.75 369.015625 297.585938 369.351562 297.332031 C 369.6875 296.996094 369.9375 296.660156 370.273438 296.324219 C 370.527344 296.070312 370.773438 295.820312 371.027344 295.566406 C 371.363281 295.148438 371.613281 294.648438 371.867188 294.140625 C 372.03125 293.976562 372.203125 293.804688 372.285156 293.550781 C 372.285156 293.46875 372.285156 293.46875 372.285156 293.46875 C 372.539062 292.964844 372.703125 292.546875 372.875 292.039062 C 372.957031 291.703125 373.128906 291.367188 373.210938 291.03125 C 373.210938 290.949219 373.292969 290.949219 373.292969 290.867188 C 385.707031 240.792969 430.492188 205.902344 482.074219 205.902344 C 543.890625 205.902344 594.210938 256.140625 594.210938 318.039062 C 594.210938 379.851562 543.882812 430.089844 482.074219 430.089844 C 475.113281 430.089844 469.496094 435.707031 469.496094 442.667969 C 469.496094 449.632812 475.113281 455.25 482.074219 455.25 C 557.808594 455.25 619.375 393.6875 619.375 318.03125 C 619.375 242.320312 557.816406 180.761719 482.082031 180.761719 " fill-opacity="1" fill-rule="evenodd"/></g></svg>