<svg xmlns="http://www.w3.org/2000/svg" xmlns:xlink="http://www.w3.org/1999/xlink" width="1080" zoomAndPan="magnify" viewBox="0 0 810 809.999993" height="1080" preserveAspectRatio="xMidYMid meet" version="1.0"><rect x="-81" width="972" fill="#ffffff" y="-80.999999" height="971.999992" fill-opacity="1"/><rect x="-81" width="972" fill="#a2d2d6" y="-80.999999" height="971.999992" fill-opacity="1"/><path fill="#ffffff" d="M 633.808594 481.769531 C 632.015625 487.046875 626.289062 489.859375 621.058594 488.117188 L 570.554688 471.183594 L 583.128906 501.988281 C 585.222656 507.167969 582.757812 513.046875 577.601562 515.136719 C 572.273438 517.28125 566.519531 514.640625 564.503906 509.609375 L 545.351562 462.714844 L 483.816406 442.070312 L 499.804688 495.265625 C 502.019531 502.613281 495.023438 513.894531 485.382812 509.832031 L 431.941406 487.421875 L 444.941406 551.449219 L 489.09375 576.203125 C 493.976562 578.941406 495.71875 585.066406 492.980469 589.921875 C 490.265625 594.78125 484.140625 596.496094 479.285156 593.785156 L 450.222656 577.496094 L 460.804688 629.71875 C 461.902344 635.148438 458.363281 640.453125 452.933594 641.574219 C 447.480469 642.667969 442.175781 639.15625 441.082031 633.703125 L 430.472656 581.507812 L 410.078125 607.804688 C 406.640625 612.238281 400.3125 613.035156 395.929688 609.597656 C 391.523438 606.210938 390.726562 599.835938 394.136719 595.453125 L 425.191406 555.457031 L 412.292969 491.828125 L 374.242188 532.273438 C 367.292969 540.117188 356.085938 541.511719 354.390625 527.066406 L 347.09375 469.589844 L 298.136719 512.847656 L 298.808594 563.5 C 298.859375 568.40625 295.394531 572.566406 290.738281 573.511719 C 284.539062 574.757812 278.761719 570.074219 278.660156 563.773438 L 278.238281 530.453125 L 238.316406 565.71875 C 234.160156 569.429688 227.78125 569.03125 224.121094 564.84375 C 220.410156 560.6875 220.808594 554.3125 224.992188 550.625 L 264.890625 515.363281 L 231.890625 510.828125 C 226.386719 510.058594 222.527344 504.976562 223.300781 499.5 C 224.046875 493.96875 229.128906 490.109375 234.632812 490.882812 L 284.8125 497.753906 L 333.449219 454.796875 L 279.40625 442.046875 C 269.199219 440.476562 265.6875 428.574219 273.980469 422.25 L 320.101562 387.210938 L 258.164062 366.441406 L 214.632812 392.339844 C 203.078125 399.210938 193.019531 381.730469 204.347656 375.03125 L 232.988281 357.996094 L 182.484375 341.0625 C 177.203125 339.269531 174.363281 333.59375 176.132812 328.3125 C 177.902344 323.03125 183.605469 320.195312 188.882812 321.960938 L 239.363281 338.871094 L 226.8125 308.066406 C 224.71875 302.886719 227.183594 297.007812 232.339844 294.917969 C 237.46875 292.824219 243.347656 295.265625 245.464844 300.445312 L 264.566406 347.339844 L 326.101562 367.984375 L 310.140625 314.789062 C 306.253906 304.628906 314.871094 296.136719 324.558594 300.222656 L 377.976562 322.609375 L 365 258.609375 L 320.824219 233.851562 C 315.964844 231.113281 314.222656 224.988281 316.914062 220.15625 C 319.652344 215.277344 325.777344 213.582031 330.632812 216.296875 L 359.722656 232.558594 L 349.113281 180.335938 C 348.015625 174.90625 351.527344 169.601562 357.007812 168.480469 C 362.460938 167.359375 367.765625 170.898438 368.886719 176.351562 L 379.445312 228.574219 L 399.890625 202.25 C 403.277344 197.867188 409.601562 197.070312 414.011719 200.457031 C 418.394531 203.84375 419.214844 210.21875 415.78125 214.601562 L 384.726562 254.597656 L 397.625 318.226562 L 435.703125 277.78125 C 443.597656 269.140625 454.230469 272.578125 455.523438 282.988281 L 462.820312 340.464844 L 511.78125 297.207031 L 511.136719 246.554688 C 511.035156 240.976562 515.519531 236.445312 521.046875 236.34375 C 526.625 236.292969 531.207031 240.726562 531.257812 246.304688 L 531.707031 279.601562 L 571.625 244.335938 C 575.785156 240.675781 582.132812 241.074219 585.84375 245.210938 C 589.507812 249.394531 589.109375 255.742188 584.925781 259.429688 L 545.027344 294.691406 L 578.050781 299.25 C 583.554688 299.996094 587.390625 305.078125 586.640625 310.554688 C 585.894531 316.035156 580.816406 319.945312 575.3125 319.171875 L 525.128906 312.300781 L 476.492188 355.257812 L 530.535156 368.035156 C 541.417969 369.503906 544.28125 381.457031 535.9375 387.808594 L 489.792969 422.871094 L 551.753906 443.640625 L 595.257812 417.714844 C 600.066406 414.875 606.242188 416.472656 609.105469 421.253906 C 611.945312 426.035156 610.351562 432.210938 605.59375 435.046875 L 576.953125 452.058594 L 627.457031 468.992188 C 632.738281 470.785156 635.578125 476.488281 633.808594 481.769531 Z M 457.992188 371.621094 L 424.695312 401.03125 L 466.707031 415.101562 L 508.34375 383.472656 Z M 444.566406 356.578125 L 437.992188 304.730469 L 402.53125 342.40625 L 411.371094 385.914062 Z M 382.808594 346.492188 L 334.59375 326.269531 L 349.484375 375.804688 L 391.621094 389.921875 Z M 343.160156 394.929688 L 301.546875 426.558594 L 351.902344 438.460938 L 385.199219 409 Z M 365.324219 453.476562 L 371.925781 505.328125 L 407.386719 467.695312 L 398.519531 424.140625 Z M 460.429688 434.25 L 418.292969 420.15625 L 427.085938 463.5625 L 475.296875 483.785156 Z M 460.429688 434.25 " fill-opacity="1" fill-rule="evenodd"/></svg>