<svg xmlns="http://www.w3.org/2000/svg" xmlns:xlink="http://www.w3.org/1999/xlink" width="1080" zoomAndPan="magnify" viewBox="0 0 810 809.999993" height="1080" preserveAspectRatio="xMidYMid meet" version="1.0"><defs><clipPath id="9951ea8331"><path d="M 199.25 199.25 L 610 199.25 L 610 609 L 199.25 609 Z M 199.25 199.25 " clip-rule="nonzero"/></clipPath></defs><rect x="-81" width="972" fill="#ffffff" y="-80.999999" height="971.999992" fill-opacity="1"/><rect x="-81" width="972" fill="#fda407" y="-80.999999" height="971.999992" fill-opacity="1"/><g clip-path="url(#9951ea8331)"><path fill="#ffffff" d="M 404.34375 490.941406 C 355.816406 490.941406 316.445312 451.570312 316.445312 403.042969 C 316.445312 354.515625 355.816406 315.144531 404.34375 315.144531 C 452.871094 315.144531 492.242188 354.515625 492.242188 403.042969 C 492.242188 451.570312 452.871094 490.941406 404.34375 490.941406 Z M 404.34375 471.40625 C 442.089844 471.40625 472.710938 440.785156 472.710938 403.042969 C 472.710938 365.300781 442.089844 334.679688 404.34375 334.679688 C 366.601562 334.679688 335.980469 365.300781 335.980469 403.042969 C 335.980469 440.785156 366.601562 471.40625 404.34375 471.40625 Z M 414.113281 207.714844 L 414.113281 266.3125 C 414.113281 271.703125 409.738281 276.078125 404.34375 276.078125 C 398.953125 276.078125 394.578125 271.703125 394.578125 266.3125 L 394.578125 207.714844 C 394.578125 202.324219 398.953125 197.949219 404.34375 197.949219 C 409.738281 197.949219 414.113281 202.324219 414.113281 207.714844 Z M 549.417969 271.804688 L 507.910156 313.3125 C 504.144531 317.078125 497.941406 317.078125 494.074219 313.3125 C 490.308594 309.449219 490.308594 303.242188 494.074219 299.476562 L 535.582031 257.96875 C 539.34375 254.207031 545.550781 254.207031 549.417969 257.96875 C 553.179688 261.835938 553.179688 268.042969 549.417969 271.804688 Z M 599.671875 412.808594 L 541.074219 412.808594 C 535.683594 412.808594 531.308594 408.433594 531.308594 403.042969 C 531.308594 397.652344 535.683594 393.277344 541.074219 393.277344 L 599.671875 393.277344 C 605.066406 393.277344 609.441406 397.652344 609.441406 403.042969 C 609.441406 408.433594 605.066406 412.808594 599.671875 412.808594 Z M 535.582031 548.113281 L 494.074219 506.609375 C 490.308594 502.84375 490.308594 496.636719 494.074219 492.773438 C 497.941406 489.007812 504.144531 489.007812 507.910156 492.773438 L 549.417969 534.277344 C 553.179688 538.042969 553.179688 544.25 549.417969 548.113281 C 545.550781 551.878906 539.34375 551.878906 535.582031 548.113281 Z M 394.578125 598.371094 L 394.578125 539.773438 C 394.578125 534.382812 398.953125 530.007812 404.34375 530.007812 C 409.738281 530.007812 414.113281 534.382812 414.113281 539.773438 L 414.113281 598.371094 C 414.113281 603.761719 409.738281 608.136719 404.34375 608.136719 C 398.953125 608.136719 394.578125 603.761719 394.578125 598.371094 Z M 259.273438 534.277344 L 300.78125 492.773438 C 304.542969 489.007812 310.75 489.007812 314.617188 492.773438 C 318.378906 496.636719 318.378906 502.84375 314.617188 506.609375 L 273.109375 548.113281 C 269.34375 551.878906 263.140625 551.878906 259.273438 548.113281 C 255.507812 544.25 255.507812 538.042969 259.273438 534.277344 Z M 209.015625 393.277344 L 267.613281 393.277344 C 273.007812 393.277344 277.382812 397.652344 277.382812 403.042969 C 277.382812 408.433594 273.007812 412.808594 267.613281 412.808594 L 209.015625 412.808594 C 203.625 412.808594 199.25 408.433594 199.25 403.042969 C 199.25 397.652344 203.625 393.277344 209.015625 393.277344 Z M 273.109375 257.96875 L 314.617188 299.476562 C 318.378906 303.242188 318.378906 309.449219 314.617188 313.3125 C 310.75 317.078125 304.542969 317.078125 300.78125 313.3125 L 259.273438 271.804688 C 255.507812 268.042969 255.507812 261.835938 259.273438 257.96875 C 263.140625 254.207031 269.34375 254.207031 273.109375 257.96875 Z M 273.109375 257.96875 " fill-opacity="1" fill-rule="evenodd"/></g></svg>