<svg xmlns="http://www.w3.org/2000/svg" xmlns:xlink="http://www.w3.org/1999/xlink" width="1080" zoomAndPan="magnify" viewBox="0 0 810 809.999993" height="1080" preserveAspectRatio="xMidYMid meet" version="1.0"><defs><clipPath id="03c80c163b"><path d="M 199.851562 204 L 610.101562 204 L 610.101562 459 L 199.851562 459 Z M 199.851562 204 " clip-rule="nonzero"/></clipPath><clipPath id="c24d5a032a"><path d="M 349 438 L 461 438 L 461 614.859375 L 349 614.859375 Z M 349 438 " clip-rule="nonzero"/></clipPath></defs><rect x="-81" width="972" fill="#ffffff" y="-80.999999" height="971.999992" fill-opacity="1"/><rect x="-81" width="972" fill="#494a5f" y="-80.999999" height="971.999992" fill-opacity="1"/><g clip-path="url(#03c80c163b)"><path fill="#ffffff" d="M 541.765625 458.234375 L 268.234375 458.234375 C 267.113281 458.234375 265.996094 458.207031 264.878906 458.148438 C 263.761719 458.09375 262.648438 458.011719 261.535156 457.898438 C 260.421875 457.789062 259.308594 457.652344 258.203125 457.484375 C 257.097656 457.320312 255.996094 457.128906 254.898438 456.910156 C 253.800781 456.691406 252.710938 456.445312 251.625 456.171875 C 250.539062 455.898438 249.460938 455.597656 248.390625 455.273438 C 247.320312 454.949219 246.257812 454.597656 245.207031 454.21875 C 244.152344 453.839844 243.109375 453.4375 242.078125 453.011719 C 241.042969 452.582031 240.019531 452.128906 239.011719 451.648438 C 238 451.167969 237 450.667969 236.011719 450.136719 C 235.027344 449.609375 234.054688 449.058594 233.09375 448.484375 C 232.136719 447.90625 231.191406 447.308594 230.261719 446.6875 C 229.332031 446.066406 228.417969 445.421875 227.519531 444.753906 C 226.617188 444.089844 225.738281 443.398438 224.871094 442.691406 C 224.007812 441.980469 223.160156 441.25 222.332031 440.5 C 221.503906 439.746094 220.691406 438.976562 219.902344 438.183594 C 219.109375 437.394531 218.339844 436.582031 217.589844 435.753906 C 216.835938 434.925781 216.105469 434.078125 215.398438 433.214844 C 214.6875 432.347656 214 431.46875 213.332031 430.570312 C 212.664062 429.671875 212.019531 428.757812 211.398438 427.828125 C 210.777344 426.894531 210.179688 425.953125 209.601562 424.992188 C 209.027344 424.03125 208.476562 423.058594 207.949219 422.074219 C 207.421875 421.085938 206.917969 420.085938 206.4375 419.078125 C 205.960938 418.066406 205.503906 417.042969 205.078125 416.011719 C 204.648438 414.976562 204.246094 413.933594 203.867188 412.878906 C 203.488281 411.828125 203.136719 410.765625 202.8125 409.695312 C 202.488281 408.625 202.1875 407.546875 201.914062 406.460938 C 201.644531 405.375 201.398438 404.285156 201.175781 403.1875 C 200.957031 402.089844 200.765625 400.988281 200.601562 399.882812 C 200.4375 398.777344 200.296875 397.667969 200.1875 396.554688 C 200.078125 395.441406 199.992188 394.324219 199.9375 393.207031 C 199.878906 392.089844 199.851562 390.972656 199.851562 389.851562 C 199.832031 385.355469 200.257812 380.902344 201.125 376.492188 C 201.996094 372.082031 203.292969 367.800781 205.015625 363.648438 C 206.742188 359.496094 208.859375 355.554688 211.371094 351.824219 C 213.878906 348.09375 216.734375 344.648438 219.933594 341.488281 C 224.03125 337.402344 228.574219 333.894531 233.5625 330.960938 C 238.554688 328.027344 243.828125 325.761719 249.390625 324.164062 C 248.925781 320.023438 248.691406 315.867188 248.695312 311.699219 C 248.695312 308.984375 248.796875 306.269531 249 303.558594 C 249.207031 300.847656 249.515625 298.148438 249.925781 295.460938 C 250.335938 292.773438 250.847656 290.105469 251.457031 287.457031 C 252.070312 284.808594 252.78125 282.1875 253.59375 279.59375 C 254.40625 277 255.316406 274.4375 256.320312 271.914062 C 257.328125 269.386719 258.425781 266.902344 259.621094 264.460938 C 260.816406 262.019531 262.101562 259.628906 263.476562 257.28125 C 264.851562 254.9375 266.316406 252.648438 267.867188 250.417969 C 269.414062 248.183594 271.046875 246.011719 272.761719 243.902344 C 274.476562 241.792969 276.269531 239.753906 278.140625 237.777344 C 280.007812 235.804688 281.953125 233.90625 283.964844 232.082031 C 285.980469 230.253906 288.058594 228.507812 290.207031 226.839844 C 292.351562 225.171875 294.558594 223.585938 296.824219 222.085938 C 299.09375 220.585938 301.414062 219.175781 303.785156 217.851562 C 306.160156 216.527344 308.582031 215.292969 311.050781 214.152344 C 313.515625 213.011719 316.023438 211.96875 318.570312 211.015625 C 321.117188 210.066406 323.699219 209.214844 326.308594 208.460938 C 328.921875 207.707031 331.558594 207.050781 334.21875 206.5 C 336.878906 205.945312 339.558594 205.492188 342.253906 205.140625 C 344.949219 204.789062 347.65625 204.542969 350.367188 204.398438 C 353.082031 204.25 355.800781 204.207031 358.515625 204.269531 C 361.234375 204.332031 363.945312 204.492188 366.652344 204.761719 C 369.355469 205.027344 372.046875 205.394531 374.726562 205.867188 C 377.402344 206.339844 380.058594 206.910156 382.691406 207.582031 C 385.324219 208.253906 387.929688 209.027344 390.503906 209.898438 C 393.082031 210.765625 395.621094 211.734375 398.121094 212.796875 C 400.625 213.859375 403.082031 215.015625 405.496094 216.265625 C 407.910156 217.515625 410.273438 218.855469 412.585938 220.285156 C 414.898438 221.710938 417.152344 223.226562 419.351562 224.828125 C 421.546875 226.425781 423.679688 228.109375 425.75 229.871094 C 427.820312 231.632812 429.820312 233.472656 431.75 235.386719 C 433.679688 237.300781 435.535156 239.285156 437.316406 241.339844 C 442.980469 238.769531 448.851562 236.824219 454.933594 235.511719 C 461.011719 234.199219 467.160156 233.546875 473.382812 233.550781 C 474.820312 233.550781 476.257812 233.589844 477.695312 233.660156 C 479.132812 233.730469 480.566406 233.839844 481.996094 233.980469 C 483.429688 234.125 484.855469 234.300781 486.277344 234.515625 C 487.699219 234.726562 489.117188 234.972656 490.527344 235.253906 C 491.9375 235.539062 493.339844 235.855469 494.734375 236.203125 C 496.132812 236.554688 497.515625 236.941406 498.894531 237.359375 C 500.269531 237.777344 501.632812 238.230469 502.988281 238.714844 C 504.34375 239.199219 505.683594 239.71875 507.011719 240.269531 C 508.339844 240.820312 509.65625 241.402344 510.953125 242.019531 C 512.253906 242.636719 513.539062 243.28125 514.808594 243.960938 C 516.074219 244.640625 517.328125 245.347656 518.558594 246.089844 C 519.792969 246.828125 521.007812 247.597656 522.203125 248.398438 C 523.398438 249.199219 524.574219 250.027344 525.730469 250.882812 C 526.886719 251.738281 528.019531 252.625 529.132812 253.539062 C 530.242188 254.449219 531.332031 255.390625 532.398438 256.355469 C 533.464844 257.320312 534.503906 258.3125 535.523438 259.332031 C 536.539062 260.347656 537.53125 261.390625 538.496094 262.453125 C 539.460938 263.519531 540.402344 264.609375 541.316406 265.722656 C 542.226562 266.832031 543.113281 267.964844 543.96875 269.121094 C 544.828125 270.277344 545.65625 271.453125 546.453125 272.648438 C 547.253906 273.84375 548.023438 275.058594 548.761719 276.292969 C 549.503906 277.527344 550.210938 278.777344 550.890625 280.042969 C 551.570312 281.3125 552.21875 282.597656 552.832031 283.898438 C 553.449219 285.195312 554.03125 286.511719 554.582031 287.839844 C 555.132812 289.167969 555.652344 290.511719 556.136719 291.863281 C 556.625 293.21875 557.074219 294.582031 557.492188 295.960938 C 557.914062 297.335938 558.296875 298.722656 558.648438 300.117188 C 559 301.511719 559.316406 302.914062 559.597656 304.324219 C 559.878906 305.734375 560.125 307.152344 560.339844 308.574219 C 560.550781 309.996094 560.726562 311.425781 560.871094 312.855469 C 561.011719 314.285156 561.121094 315.722656 561.191406 317.15625 C 561.265625 318.59375 561.300781 320.03125 561.304688 321.46875 C 561.304688 322.457031 561.289062 323.425781 561.265625 324.371094 C 563.011719 324.898438 564.730469 325.496094 566.429688 326.160156 C 568.128906 326.824219 569.796875 327.554688 571.4375 328.355469 C 573.078125 329.152344 574.683594 330.011719 576.253906 330.9375 C 577.828125 331.863281 579.359375 332.851562 580.851562 333.898438 C 582.34375 334.945312 583.792969 336.046875 585.199219 337.210938 C 586.605469 338.375 587.960938 339.589844 589.269531 340.859375 C 590.578125 342.128906 591.835938 343.449219 593.039062 344.820312 C 594.242188 346.191406 595.390625 347.605469 596.480469 349.070312 C 597.570312 350.53125 598.601562 352.03125 599.574219 353.574219 C 600.546875 355.121094 601.453125 356.699219 602.300781 358.316406 C 603.144531 359.929688 603.925781 361.578125 604.640625 363.253906 C 605.355469 364.933594 606.003906 366.636719 606.582031 368.367188 C 607.164062 370.09375 607.671875 371.84375 608.113281 373.613281 C 608.554688 375.382812 608.921875 377.167969 609.222656 378.96875 C 609.519531 380.765625 609.746094 382.574219 609.902344 384.390625 C 610.054688 386.207031 610.136719 388.027344 610.148438 389.851562 C 610.148438 390.972656 610.117188 392.089844 610.0625 393.207031 C 610.003906 394.324219 609.921875 395.441406 609.8125 396.554688 C 609.699219 397.667969 609.5625 398.777344 609.398438 399.882812 C 609.234375 400.988281 609.039062 402.089844 608.820312 403.1875 C 608.601562 404.285156 608.355469 405.375 608.082031 406.460938 C 607.8125 407.546875 607.511719 408.625 607.1875 409.695312 C 606.859375 410.765625 606.507812 411.828125 606.132812 412.878906 C 605.753906 413.933594 605.351562 414.976562 604.921875 416.011719 C 604.492188 417.042969 604.039062 418.066406 603.5625 419.078125 C 603.082031 420.089844 602.578125 421.085938 602.050781 422.074219 C 601.523438 423.058594 600.972656 424.03125 600.394531 424.992188 C 599.820312 425.953125 599.222656 426.898438 598.601562 427.828125 C 597.976562 428.757812 597.335938 429.671875 596.667969 430.570312 C 596 431.46875 595.3125 432.351562 594.601562 433.214844 C 593.894531 434.078125 593.164062 434.925781 592.410156 435.753906 C 591.660156 436.582031 590.886719 437.394531 590.097656 438.183594 C 589.304688 438.976562 588.496094 439.746094 587.667969 440.5 C 586.839844 441.25 585.992188 441.980469 585.125 442.691406 C 584.261719 443.402344 583.378906 444.089844 582.480469 444.753906 C 581.582031 445.421875 580.667969 446.066406 579.738281 446.6875 C 578.808594 447.308594 577.863281 447.910156 576.90625 448.484375 C 575.945312 449.058594 574.972656 449.613281 573.984375 450.140625 C 573 450.667969 572 451.171875 570.988281 451.648438 C 569.976562 452.128906 568.957031 452.582031 567.921875 453.011719 C 566.890625 453.4375 565.84375 453.84375 564.792969 454.21875 C 563.738281 454.597656 562.675781 454.949219 561.605469 455.273438 C 560.535156 455.601562 559.457031 455.898438 558.375 456.171875 C 557.289062 456.445312 556.199219 456.691406 555.101562 456.910156 C 554.003906 457.128906 552.902344 457.320312 551.796875 457.484375 C 550.6875 457.652344 549.578125 457.789062 548.464844 457.898438 C 547.351562 458.011719 546.238281 458.09375 545.121094 458.148438 C 544 458.207031 542.882812 458.234375 541.765625 458.234375 Z M 356.15625 223.78125 C 354.527344 223.785156 352.898438 223.832031 351.273438 223.925781 C 349.648438 224.019531 348.027344 224.160156 346.410156 224.34375 C 344.792969 224.527344 343.183594 224.753906 341.578125 225.027344 C 339.972656 225.300781 338.375 225.617188 336.789062 225.980469 C 335.203125 226.339844 333.625 226.746094 332.058594 227.195312 C 330.496094 227.644531 328.945312 228.136719 327.40625 228.671875 C 325.867188 229.207031 324.347656 229.78125 322.839844 230.402344 C 321.335938 231.019531 319.847656 231.679688 318.378906 232.382812 C 316.910156 233.082031 315.460938 233.824219 314.035156 234.605469 C 312.605469 235.390625 311.203125 236.210938 309.820312 237.070312 C 308.4375 237.929688 307.078125 238.828125 305.746094 239.761719 C 304.414062 240.695312 303.109375 241.667969 301.828125 242.675781 C 300.550781 243.683594 299.300781 244.722656 298.078125 245.800781 C 296.859375 246.878906 295.667969 247.988281 294.507812 249.128906 C 293.347656 250.273438 292.222656 251.445312 291.125 252.652344 C 290.03125 253.855469 288.972656 255.089844 287.945312 256.355469 C 286.917969 257.617188 285.929688 258.910156 284.972656 260.226562 C 284.019531 261.546875 283.101562 262.890625 282.222656 264.261719 C 281.339844 265.628906 280.5 267.023438 279.695312 268.4375 C 278.894531 269.855469 278.132812 271.292969 277.40625 272.75 C 276.683594 274.210938 276.003906 275.6875 275.359375 277.183594 C 274.71875 278.679688 274.121094 280.191406 273.5625 281.722656 C 273.003906 283.25 272.492188 284.792969 272.019531 286.351562 C 271.546875 287.910156 271.117188 289.480469 270.734375 291.0625 C 270.347656 292.644531 270.007812 294.234375 269.710938 295.835938 C 269.414062 297.4375 269.160156 299.042969 268.953125 300.660156 C 268.746094 302.273438 268.582031 303.894531 268.464844 305.515625 C 268.347656 307.140625 268.273438 308.765625 268.246094 310.394531 C 268.21875 312.019531 268.234375 313.648438 268.296875 315.273438 C 268.359375 316.902344 268.46875 318.527344 268.621094 320.148438 C 268.773438 321.765625 268.96875 323.382812 269.210938 324.992188 C 269.453125 326.601562 269.738281 328.203125 270.070312 329.796875 C 270.210938 330.460938 270.28125 331.128906 270.285156 331.804688 C 270.285156 332.476562 270.21875 333.148438 270.082031 333.808594 C 269.945312 334.46875 269.742188 335.109375 269.472656 335.730469 C 269.203125 336.347656 268.871094 336.933594 268.480469 337.484375 C 268.089844 338.035156 267.644531 338.539062 267.148438 339 C 266.652344 339.457031 266.117188 339.859375 265.535156 340.207031 C 264.957031 340.554688 264.347656 340.839844 263.710938 341.058594 C 263.070312 341.28125 262.417969 341.433594 261.746094 341.519531 C 260.230469 341.722656 258.722656 341.992188 257.230469 342.335938 C 255.738281 342.683594 254.265625 343.09375 252.8125 343.578125 C 251.359375 344.058594 249.933594 344.609375 248.53125 345.226562 C 247.128906 345.84375 245.761719 346.523438 244.421875 347.269531 C 243.085938 348.015625 241.785156 348.824219 240.523438 349.691406 C 239.261719 350.558594 238.046875 351.484375 236.871094 352.46875 C 235.695312 353.449219 234.570312 354.488281 233.496094 355.574219 C 232.417969 356.664062 231.394531 357.800781 230.425781 358.984375 C 229.453125 360.171875 228.542969 361.398438 227.6875 362.671875 C 226.835938 363.941406 226.042969 365.25 225.3125 366.59375 C 224.578125 367.941406 223.914062 369.316406 223.3125 370.726562 C 222.710938 372.132812 222.175781 373.566406 221.710938 375.023438 C 221.242188 376.484375 220.847656 377.960938 220.519531 379.457031 C 220.191406 380.953125 219.933594 382.460938 219.75 383.980469 C 219.5625 385.5 219.449219 387.027344 219.40625 388.558594 C 219.367188 390.085938 219.394531 391.617188 219.496094 393.144531 C 219.601562 394.671875 219.773438 396.191406 220.019531 397.703125 C 220.261719 399.214844 220.578125 400.710938 220.964844 402.195312 C 221.351562 403.675781 221.804688 405.136719 222.328125 406.574219 C 222.851562 408.015625 223.441406 409.425781 224.097656 410.808594 C 224.753906 412.191406 225.472656 413.542969 226.257812 414.859375 C 227.042969 416.175781 227.882812 417.449219 228.789062 418.6875 C 229.691406 419.921875 230.652344 421.113281 231.667969 422.261719 C 232.683594 423.40625 233.75 424.503906 234.867188 425.546875 C 235.988281 426.59375 237.152344 427.585938 238.363281 428.519531 C 239.574219 429.457031 240.828125 430.332031 242.125 431.152344 C 243.417969 431.96875 244.746094 432.726562 246.113281 433.417969 C 247.480469 434.109375 248.875 434.738281 250.300781 435.300781 C 251.722656 435.859375 253.171875 436.355469 254.644531 436.777344 C 256.113281 437.203125 257.601562 437.558594 259.105469 437.84375 C 260.609375 438.128906 262.125 438.34375 263.648438 438.484375 C 265.175781 438.628906 266.703125 438.699219 268.234375 438.699219 L 541.765625 438.699219 C 543.363281 438.695312 544.957031 438.613281 546.550781 438.453125 C 548.140625 438.296875 549.71875 438.058594 551.289062 437.746094 C 552.855469 437.429688 554.40625 437.042969 555.933594 436.574219 C 557.464844 436.109375 558.96875 435.570312 560.445312 434.957031 C 561.921875 434.34375 563.363281 433.660156 564.773438 432.90625 C 566.183594 432.148438 567.550781 431.328125 568.882812 430.441406 C 570.210938 429.550781 571.492188 428.597656 572.730469 427.585938 C 573.964844 426.570312 575.148438 425.496094 576.277344 424.367188 C 577.410156 423.234375 578.480469 422.050781 579.496094 420.816406 C 580.511719 419.582031 581.460938 418.296875 582.351562 416.96875 C 583.242188 415.640625 584.0625 414.269531 584.816406 412.859375 C 585.570312 411.453125 586.253906 410.007812 586.867188 408.53125 C 587.480469 407.054688 588.019531 405.550781 588.488281 404.023438 C 588.953125 402.492188 589.34375 400.945312 589.65625 399.375 C 589.972656 397.808594 590.207031 396.230469 590.367188 394.636719 C 590.527344 393.046875 590.605469 391.453125 590.609375 389.851562 C 590.601562 388.414062 590.535156 386.980469 590.402344 385.550781 C 590.269531 384.117188 590.074219 382.695312 589.816406 381.28125 C 589.558594 379.867188 589.238281 378.464844 588.855469 377.078125 C 588.476562 375.691406 588.035156 374.328125 587.53125 372.980469 C 587.03125 371.632812 586.472656 370.308594 585.855469 369.011719 C 585.234375 367.710938 584.5625 366.445312 583.832031 365.207031 C 583.105469 363.964844 582.320312 362.761719 581.484375 361.589844 C 580.652344 360.421875 579.765625 359.289062 578.832031 358.199219 C 577.894531 357.105469 576.914062 356.058594 575.886719 355.050781 C 574.859375 354.046875 573.792969 353.085938 572.679688 352.175781 C 571.570312 351.261719 570.417969 350.402344 569.230469 349.589844 C 568.042969 348.78125 566.824219 348.023438 565.570312 347.320312 C 564.316406 346.617188 563.035156 345.96875 561.722656 345.378906 C 560.410156 344.789062 559.078125 344.257812 557.71875 343.785156 C 556.363281 343.3125 554.988281 342.898438 553.59375 342.546875 C 552.199219 342.195312 550.792969 341.902344 549.375 341.675781 C 548.742188 341.578125 548.128906 341.421875 547.53125 341.207031 C 546.929688 340.992188 546.359375 340.71875 545.8125 340.390625 C 545.265625 340.0625 544.757812 339.683594 544.285156 339.253906 C 543.8125 338.828125 543.386719 338.359375 543.007812 337.847656 C 542.628906 337.335938 542.300781 336.792969 542.027344 336.214844 C 541.753906 335.640625 541.539062 335.046875 541.382812 334.429688 C 541.226562 333.808594 541.128906 333.183594 541.09375 332.546875 C 541.0625 331.910156 541.089844 331.277344 541.179688 330.648438 C 541.59375 327.601562 541.789062 324.542969 541.765625 321.46875 C 541.761719 320.351562 541.734375 319.234375 541.679688 318.117188 C 541.621094 317 541.539062 315.882812 541.429688 314.769531 C 541.316406 313.65625 541.179688 312.546875 541.015625 311.441406 C 540.851562 310.332031 540.65625 309.230469 540.4375 308.132812 C 540.21875 307.039062 539.972656 305.945312 539.699219 304.863281 C 539.429688 303.777344 539.128906 302.699219 538.804688 301.628906 C 538.476562 300.558594 538.125 299.496094 537.75 298.441406 C 537.371094 297.390625 536.96875 296.347656 536.539062 295.3125 C 536.109375 294.28125 535.65625 293.257812 535.175781 292.246094 C 534.699219 291.234375 534.195312 290.234375 533.667969 289.25 C 533.140625 288.261719 532.589844 287.289062 532.011719 286.332031 C 531.4375 285.371094 530.839844 284.425781 530.214844 283.496094 C 529.59375 282.566406 528.949219 281.652344 528.285156 280.753906 C 527.617188 279.855469 526.929688 278.972656 526.21875 278.109375 C 525.507812 277.246094 524.777344 276.398438 524.027344 275.570312 C 523.277344 274.738281 522.503906 273.929688 521.714844 273.136719 C 520.921875 272.347656 520.113281 271.578125 519.285156 270.824219 C 518.453125 270.074219 517.609375 269.34375 516.742188 268.632812 C 515.878906 267.921875 514.996094 267.234375 514.097656 266.566406 C 513.199219 265.902344 512.285156 265.257812 511.355469 264.636719 C 510.425781 264.011719 509.480469 263.414062 508.519531 262.839844 C 507.5625 262.265625 506.589844 261.710938 505.601562 261.183594 C 504.617188 260.65625 503.617188 260.152344 502.605469 259.675781 C 501.59375 259.195312 500.574219 258.742188 499.539062 258.3125 C 498.503906 257.882812 497.460938 257.480469 496.410156 257.105469 C 495.355469 256.726562 494.292969 256.375 493.222656 256.050781 C 492.152344 255.722656 491.074219 255.425781 489.992188 255.152344 C 488.90625 254.878906 487.816406 254.632812 486.71875 254.414062 C 485.621094 254.195312 484.519531 254.003906 483.414062 253.835938 C 482.304688 253.671875 481.195312 253.535156 480.082031 253.421875 C 478.96875 253.3125 477.855469 253.230469 476.738281 253.171875 C 475.617188 253.117188 474.5 253.089844 473.382812 253.085938 C 467.453125 253.078125 461.625 253.839844 455.894531 255.371094 C 450.167969 256.902344 444.738281 259.152344 439.605469 262.121094 C 439.089844 262.421875 438.550781 262.671875 437.992188 262.871094 C 437.429688 263.074219 436.855469 263.21875 436.265625 263.316406 C 435.679688 263.410156 435.085938 263.453125 434.492188 263.441406 C 433.894531 263.425781 433.304688 263.359375 432.722656 263.242188 C 432.136719 263.121094 431.570312 262.945312 431.019531 262.722656 C 430.464844 262.496094 429.941406 262.226562 429.4375 261.90625 C 428.933594 261.582031 428.464844 261.21875 428.03125 260.8125 C 427.59375 260.40625 427.199219 259.964844 426.847656 259.484375 C 424.820312 256.714844 422.640625 254.078125 420.304688 251.566406 C 417.96875 249.054688 415.492188 246.691406 412.878906 244.472656 C 410.261719 242.253906 407.527344 240.195312 404.667969 238.300781 C 401.808594 236.40625 398.851562 234.683594 395.789062 233.140625 C 392.730469 231.59375 389.585938 230.234375 386.367188 229.058594 C 383.144531 227.882812 379.863281 226.902344 376.527344 226.113281 C 373.1875 225.324219 369.816406 224.734375 366.410156 224.34375 C 363.003906 223.957031 359.582031 223.765625 356.15625 223.78125 Z M 356.15625 223.78125 " fill-opacity="1" fill-rule="nonzero"/></g><path fill="#ffffff" d="M 327.746094 516.855469 C 327.351562 516.855469 326.964844 516.828125 326.574219 516.78125 C 326.1875 516.734375 325.804688 516.664062 325.421875 516.570312 C 325.042969 516.476562 324.671875 516.359375 324.304688 516.222656 C 323.9375 516.085938 323.582031 515.925781 323.234375 515.742188 C 322.890625 515.5625 322.554688 515.363281 322.230469 515.140625 C 321.910156 514.917969 321.601562 514.679688 321.308594 514.421875 C 321.015625 514.164062 320.738281 513.890625 320.476562 513.597656 C 320.214844 513.304688 319.972656 513 319.746094 512.679688 C 319.523438 512.359375 319.320312 512.027344 319.136719 511.679688 C 318.949219 511.335938 318.789062 510.980469 318.644531 510.617188 C 318.503906 510.253906 318.386719 509.882812 318.289062 509.503906 C 318.191406 509.125 318.117188 508.738281 318.066406 508.351562 C 318.015625 507.964844 317.984375 507.574219 317.980469 507.183594 C 317.976562 506.792969 317.996094 506.402344 318.039062 506.015625 C 318.082031 505.625 318.144531 505.242188 318.234375 504.859375 C 318.324219 504.480469 318.433594 504.105469 318.566406 503.738281 L 325.679688 484.199219 C 325.898438 483.597656 326.175781 483.023438 326.507812 482.476562 C 326.839844 481.925781 327.226562 481.417969 327.660156 480.945312 C 328.09375 480.472656 328.566406 480.046875 329.085938 479.667969 C 329.601562 479.292969 330.152344 478.96875 330.730469 478.695312 C 331.3125 478.425781 331.914062 478.214844 332.539062 478.0625 C 333.160156 477.910156 333.792969 477.820312 334.433594 477.792969 C 335.074219 477.765625 335.710938 477.800781 336.34375 477.898438 C 336.976562 477.996094 337.59375 478.15625 338.195312 478.375 C 338.796875 478.59375 339.375 478.871094 339.921875 479.203125 C 340.46875 479.535156 340.980469 479.917969 341.453125 480.351562 C 341.925781 480.785156 342.351562 481.257812 342.730469 481.777344 C 343.109375 482.292969 343.433594 482.84375 343.703125 483.421875 C 343.976562 484.003906 344.1875 484.605469 344.339844 485.226562 C 344.492188 485.851562 344.582031 486.480469 344.609375 487.121094 C 344.640625 487.761719 344.605469 488.398438 344.507812 489.03125 C 344.410156 489.667969 344.253906 490.285156 344.035156 490.886719 L 336.921875 510.425781 C 336.578125 511.367188 336.101562 512.234375 335.492188 513.03125 C 334.882812 513.824219 334.167969 514.511719 333.347656 515.085938 C 332.527344 515.660156 331.636719 516.097656 330.679688 516.402344 C 329.726562 516.703125 328.746094 516.855469 327.746094 516.855469 Z M 327.746094 516.855469 " fill-opacity="1" fill-rule="nonzero"/><path fill="#ffffff" d="M 299.300781 595.007812 C 298.910156 595.003906 298.519531 594.980469 298.132812 594.933594 C 297.742188 594.886719 297.359375 594.816406 296.980469 594.722656 C 296.601562 594.628906 296.226562 594.511719 295.863281 594.375 C 295.496094 594.234375 295.140625 594.078125 294.792969 593.894531 C 294.445312 593.714844 294.113281 593.511719 293.789062 593.292969 C 293.464844 593.070312 293.15625 592.832031 292.863281 592.574219 C 292.570312 592.316406 292.292969 592.039062 292.03125 591.75 C 291.769531 591.457031 291.527344 591.152344 291.304688 590.832031 C 291.082031 590.511719 290.875 590.179688 290.691406 589.832031 C 290.507812 589.488281 290.34375 589.132812 290.203125 588.769531 C 290.0625 588.40625 289.941406 588.03125 289.84375 587.652344 C 289.746094 587.273438 289.671875 586.890625 289.621094 586.503906 C 289.570312 586.117188 289.542969 585.726562 289.539062 585.335938 C 289.535156 584.945312 289.550781 584.554688 289.59375 584.167969 C 289.636719 583.777344 289.703125 583.390625 289.789062 583.011719 C 289.878906 582.628906 289.988281 582.257812 290.125 581.886719 L 304.347656 542.8125 C 304.566406 542.210938 304.84375 541.632812 305.175781 541.085938 C 305.507812 540.535156 305.890625 540.027344 306.324219 539.550781 C 306.757812 539.078125 307.234375 538.652344 307.75 538.273438 C 308.269531 537.894531 308.816406 537.570312 309.398438 537.296875 C 309.980469 537.027344 310.582031 536.816406 311.207031 536.664062 C 311.828125 536.507812 312.460938 536.417969 313.101562 536.390625 C 313.742188 536.363281 314.382812 536.398438 315.015625 536.496094 C 315.648438 536.59375 316.269531 536.753906 316.871094 536.972656 C 317.472656 537.191406 318.050781 537.46875 318.597656 537.800781 C 319.144531 538.136719 319.65625 538.519531 320.128906 538.953125 C 320.601562 539.386719 321.027344 539.863281 321.40625 540.378906 C 321.785156 540.898438 322.113281 541.445312 322.382812 542.027344 C 322.652344 542.609375 322.863281 543.210938 323.015625 543.835938 C 323.167969 544.460938 323.257812 545.089844 323.285156 545.730469 C 323.3125 546.375 323.277344 547.011719 323.179688 547.644531 C 323.082031 548.277344 322.921875 548.898438 322.703125 549.5 L 308.480469 588.574219 C 308.136719 589.519531 307.660156 590.386719 307.050781 591.183594 C 306.4375 591.976562 305.722656 592.664062 304.902344 593.238281 C 304.082031 593.8125 303.195312 594.25 302.238281 594.550781 C 301.28125 594.855469 300.304688 595.003906 299.300781 595.007812 Z M 299.300781 595.007812 " fill-opacity="1" fill-rule="nonzero"/><path fill="#ffffff" d="M 262.019531 536.390625 C 261.628906 536.390625 261.238281 536.367188 260.847656 536.320312 C 260.460938 536.273438 260.078125 536.203125 259.699219 536.109375 C 259.316406 536.015625 258.945312 535.898438 258.578125 535.761719 C 258.214844 535.621094 257.855469 535.460938 257.511719 535.28125 C 257.164062 535.101562 256.828125 534.898438 256.507812 534.679688 C 256.183594 534.457031 255.875 534.21875 255.582031 533.960938 C 255.289062 533.703125 255.011719 533.425781 254.75 533.136719 C 254.488281 532.84375 254.246094 532.539062 254.023438 532.21875 C 253.796875 531.898438 253.59375 531.5625 253.410156 531.21875 C 253.226562 530.875 253.0625 530.519531 252.921875 530.15625 C 252.777344 529.789062 252.660156 529.417969 252.5625 529.039062 C 252.464844 528.660156 252.390625 528.277344 252.339844 527.890625 C 252.289062 527.503906 252.261719 527.113281 252.253906 526.722656 C 252.25 526.332031 252.269531 525.941406 252.3125 525.550781 C 252.355469 525.164062 252.417969 524.777344 252.507812 524.398438 C 252.597656 524.015625 252.707031 523.640625 252.839844 523.273438 L 267.066406 484.199219 C 267.285156 483.597656 267.5625 483.019531 267.894531 482.472656 C 268.226562 481.925781 268.609375 481.414062 269.042969 480.941406 C 269.476562 480.46875 269.953125 480.046875 270.46875 479.667969 C 270.988281 479.289062 271.535156 478.960938 272.117188 478.691406 C 272.699219 478.421875 273.300781 478.210938 273.921875 478.058594 C 274.546875 477.90625 275.179688 477.816406 275.820312 477.789062 C 276.460938 477.761719 277.097656 477.796875 277.730469 477.894531 C 278.363281 477.992188 278.980469 478.148438 279.585938 478.371094 C 280.1875 478.589844 280.761719 478.863281 281.308594 479.199219 C 281.859375 479.53125 282.367188 479.914062 282.839844 480.347656 C 283.3125 480.78125 283.738281 481.253906 284.117188 481.773438 C 284.496094 482.289062 284.824219 482.839844 285.09375 483.417969 C 285.363281 484 285.574219 484.601562 285.726562 485.226562 C 285.878906 485.847656 285.972656 486.480469 286 487.121094 C 286.027344 487.761719 285.992188 488.398438 285.894531 489.03125 C 285.796875 489.664062 285.640625 490.285156 285.417969 490.886719 L 271.195312 529.960938 C 270.851562 530.902344 270.375 531.773438 269.765625 532.566406 C 269.15625 533.363281 268.441406 534.046875 267.621094 534.625 C 266.800781 535.199219 265.910156 535.636719 264.957031 535.9375 C 264 536.242188 263.019531 536.390625 262.019531 536.390625 Z M 262.019531 536.390625 " fill-opacity="1" fill-rule="nonzero"/><path fill="#ffffff" d="M 240.6875 595.007812 C 240.296875 595.003906 239.90625 594.980469 239.519531 594.933594 C 239.128906 594.886719 238.746094 594.816406 238.367188 594.722656 C 237.988281 594.628906 237.613281 594.511719 237.246094 594.375 C 236.882812 594.234375 236.527344 594.078125 236.179688 593.894531 C 235.832031 593.714844 235.496094 593.511719 235.175781 593.292969 C 234.851562 593.070312 234.542969 592.832031 234.25 592.574219 C 233.957031 592.316406 233.679688 592.039062 233.417969 591.75 C 233.15625 591.457031 232.914062 591.152344 232.691406 590.832031 C 232.464844 590.511719 232.261719 590.179688 232.078125 589.832031 C 231.894531 589.488281 231.730469 589.132812 231.589844 588.769531 C 231.445312 588.40625 231.328125 588.03125 231.230469 587.652344 C 231.132812 587.273438 231.058594 586.890625 231.007812 586.503906 C 230.957031 586.117188 230.929688 585.726562 230.925781 585.335938 C 230.917969 584.945312 230.9375 584.554688 230.980469 584.167969 C 231.023438 583.777344 231.089844 583.390625 231.175781 583.011719 C 231.265625 582.628906 231.375 582.257812 231.507812 581.886719 L 238.621094 562.351562 C 238.839844 561.75 239.117188 561.175781 239.453125 560.625 C 239.785156 560.078125 240.167969 559.570312 240.601562 559.097656 C 241.035156 558.625 241.511719 558.199219 242.027344 557.824219 C 242.546875 557.445312 243.09375 557.121094 243.675781 556.851562 C 244.257812 556.578125 244.859375 556.367188 245.480469 556.21875 C 246.101562 556.066406 246.734375 555.976562 247.375 555.949219 C 248.015625 555.921875 248.652344 555.957031 249.285156 556.054688 C 249.917969 556.152344 250.535156 556.308594 251.136719 556.527344 C 251.738281 556.75 252.316406 557.023438 252.863281 557.355469 C 253.410156 557.691406 253.921875 558.074219 254.394531 558.503906 C 254.867188 558.9375 255.292969 559.414062 255.671875 559.929688 C 256.050781 560.445312 256.375 560.996094 256.644531 561.574219 C 256.917969 562.15625 257.128906 562.757812 257.28125 563.378906 C 257.433594 564.003906 257.523438 564.632812 257.550781 565.273438 C 257.582031 565.914062 257.546875 566.550781 257.449219 567.183594 C 257.351562 567.816406 257.195312 568.4375 256.976562 569.039062 L 249.863281 588.574219 C 249.523438 589.519531 249.046875 590.386719 248.433594 591.183594 C 247.824219 591.976562 247.109375 592.664062 246.289062 593.238281 C 245.46875 593.8125 244.578125 594.25 243.625 594.550781 C 242.667969 594.855469 241.6875 595.003906 240.6875 595.007812 Z M 240.6875 595.007812 " fill-opacity="1" fill-rule="nonzero"/><path fill="#ffffff" d="M 493.816406 516.855469 C 493.425781 516.855469 493.035156 516.828125 492.648438 516.78125 C 492.257812 516.734375 491.875 516.664062 491.496094 516.570312 C 491.117188 516.476562 490.742188 516.359375 490.378906 516.222656 C 490.011719 516.085938 489.65625 515.925781 489.308594 515.742188 C 488.960938 515.5625 488.628906 515.363281 488.304688 515.140625 C 487.980469 514.917969 487.675781 514.679688 487.378906 514.421875 C 487.085938 514.164062 486.808594 513.890625 486.546875 513.597656 C 486.289062 513.304688 486.042969 513 485.820312 512.679688 C 485.597656 512.359375 485.390625 512.027344 485.207031 511.679688 C 485.023438 511.335938 484.859375 510.980469 484.71875 510.617188 C 484.578125 510.253906 484.457031 509.882812 484.359375 509.503906 C 484.261719 509.125 484.1875 508.738281 484.136719 508.351562 C 484.085938 507.964844 484.058594 507.574219 484.054688 507.183594 C 484.050781 506.792969 484.070312 506.402344 484.109375 506.015625 C 484.152344 505.625 484.21875 505.242188 484.308594 504.859375 C 484.394531 504.480469 484.507812 504.105469 484.640625 503.738281 L 491.75 484.199219 C 491.972656 483.597656 492.246094 483.023438 492.582031 482.476562 C 492.914062 481.925781 493.296875 481.417969 493.730469 480.945312 C 494.164062 480.472656 494.640625 480.046875 495.15625 479.667969 C 495.675781 479.292969 496.222656 478.96875 496.804688 478.695312 C 497.386719 478.425781 497.988281 478.214844 498.609375 478.0625 C 499.234375 477.910156 499.863281 477.820312 500.503906 477.792969 C 501.144531 477.765625 501.78125 477.800781 502.414062 477.898438 C 503.050781 477.996094 503.667969 478.15625 504.269531 478.375 C 504.871094 478.59375 505.445312 478.871094 505.992188 479.203125 C 506.542969 479.535156 507.050781 479.917969 507.523438 480.351562 C 507.996094 480.785156 508.421875 481.257812 508.800781 481.777344 C 509.179688 482.292969 509.503906 482.84375 509.777344 483.421875 C 510.046875 484.003906 510.257812 484.605469 510.410156 485.226562 C 510.566406 485.851562 510.65625 486.480469 510.683594 487.121094 C 510.710938 487.761719 510.675781 488.398438 510.578125 489.03125 C 510.484375 489.667969 510.324219 490.285156 510.105469 490.886719 L 502.996094 510.425781 C 502.652344 511.367188 502.175781 512.234375 501.566406 513.03125 C 500.953125 513.824219 500.238281 514.511719 499.417969 515.085938 C 498.597656 515.660156 497.710938 516.097656 496.753906 516.402344 C 495.796875 516.703125 494.820312 516.855469 493.816406 516.855469 Z M 493.816406 516.855469 " fill-opacity="1" fill-rule="nonzero"/><path fill="#ffffff" d="M 465.375 595.007812 C 464.980469 595.003906 464.59375 594.980469 464.203125 594.933594 C 463.816406 594.886719 463.433594 594.816406 463.050781 594.722656 C 462.671875 594.628906 462.300781 594.511719 461.933594 594.375 C 461.566406 594.234375 461.210938 594.078125 460.867188 593.894531 C 460.519531 593.714844 460.183594 593.511719 459.863281 593.292969 C 459.539062 593.070312 459.230469 592.832031 458.9375 592.574219 C 458.644531 592.316406 458.367188 592.039062 458.105469 591.75 C 457.84375 591.457031 457.601562 591.152344 457.378906 590.832031 C 457.152344 590.511719 456.949219 590.179688 456.765625 589.832031 C 456.578125 589.488281 456.417969 589.132812 456.273438 588.769531 C 456.132812 588.40625 456.015625 588.03125 455.917969 587.652344 C 455.820312 587.273438 455.746094 586.890625 455.695312 586.503906 C 455.644531 586.117188 455.613281 585.726562 455.609375 585.335938 C 455.605469 584.945312 455.625 584.554688 455.667969 584.167969 C 455.710938 583.777344 455.773438 583.390625 455.863281 583.011719 C 455.953125 582.628906 456.0625 582.257812 456.195312 581.886719 L 470.421875 542.8125 C 470.640625 542.210938 470.914062 541.632812 471.246094 541.085938 C 471.582031 540.535156 471.964844 540.023438 472.398438 539.550781 C 472.828125 539.078125 473.304688 538.652344 473.824219 538.273438 C 474.339844 537.890625 474.890625 537.566406 475.472656 537.296875 C 476.054688 537.023438 476.65625 536.8125 477.277344 536.660156 C 477.902344 536.507812 478.535156 536.417969 479.175781 536.386719 C 479.816406 536.359375 480.453125 536.394531 481.089844 536.492188 C 481.722656 536.589844 482.339844 536.75 482.945312 536.96875 C 483.546875 537.1875 484.125 537.464844 484.671875 537.800781 C 485.21875 538.132812 485.730469 538.515625 486.203125 538.949219 C 486.675781 539.382812 487.101562 539.859375 487.480469 540.378906 C 487.859375 540.894531 488.1875 541.445312 488.457031 542.027344 C 488.726562 542.609375 488.9375 543.210938 489.089844 543.835938 C 489.242188 544.457031 489.332031 545.089844 489.359375 545.730469 C 489.386719 546.371094 489.351562 547.011719 489.253906 547.644531 C 489.15625 548.277344 488.996094 548.898438 488.773438 549.5 L 474.550781 588.574219 C 474.207031 589.519531 473.730469 590.386719 473.121094 591.183594 C 472.511719 591.976562 471.796875 592.664062 470.976562 593.238281 C 470.15625 593.8125 469.265625 594.25 468.308594 594.550781 C 467.355469 594.855469 466.375 595.003906 465.375 595.007812 Z M 465.375 595.007812 " fill-opacity="1" fill-rule="nonzero"/><path fill="#ffffff" d="M 545.320312 536.390625 C 544.925781 536.390625 544.539062 536.367188 544.148438 536.320312 C 543.761719 536.273438 543.378906 536.203125 542.996094 536.109375 C 542.617188 536.015625 542.246094 535.898438 541.878906 535.761719 C 541.511719 535.621094 541.15625 535.460938 540.8125 535.28125 C 540.464844 535.101562 540.128906 534.898438 539.808594 534.679688 C 539.484375 534.457031 539.175781 534.21875 538.882812 533.960938 C 538.589844 533.703125 538.3125 533.425781 538.050781 533.136719 C 537.789062 532.84375 537.546875 532.539062 537.320312 532.21875 C 537.097656 531.898438 536.894531 531.5625 536.710938 531.21875 C 536.523438 530.875 536.363281 530.519531 536.21875 530.15625 C 536.078125 529.789062 535.960938 529.417969 535.863281 529.039062 C 535.765625 528.660156 535.691406 528.277344 535.640625 527.890625 C 535.589844 527.503906 535.558594 527.113281 535.554688 526.722656 C 535.550781 526.332031 535.570312 525.941406 535.613281 525.550781 C 535.65625 525.164062 535.71875 524.777344 535.808594 524.398438 C 535.898438 524.015625 536.007812 523.640625 536.140625 523.273438 L 550.363281 484.199219 C 550.585938 483.597656 550.863281 483.023438 551.195312 482.476562 C 551.527344 481.925781 551.910156 481.417969 552.34375 480.945312 C 552.777344 480.472656 553.253906 480.046875 553.769531 479.667969 C 554.289062 479.292969 554.835938 478.96875 555.417969 478.695312 C 556 478.425781 556.601562 478.214844 557.222656 478.0625 C 557.847656 477.910156 558.476562 477.820312 559.117188 477.792969 C 559.757812 477.765625 560.394531 477.800781 561.027344 477.898438 C 561.664062 477.996094 562.28125 478.15625 562.882812 478.375 C 563.484375 478.59375 564.058594 478.871094 564.609375 479.203125 C 565.15625 479.535156 565.664062 479.917969 566.136719 480.351562 C 566.609375 480.785156 567.035156 481.257812 567.414062 481.777344 C 567.792969 482.292969 568.121094 482.84375 568.390625 483.421875 C 568.660156 484.003906 568.875 484.605469 569.027344 485.226562 C 569.179688 485.851562 569.269531 486.480469 569.296875 487.121094 C 569.324219 487.761719 569.289062 488.398438 569.195312 489.03125 C 569.097656 489.667969 568.9375 490.285156 568.71875 490.886719 L 554.496094 529.960938 C 554.152344 530.902344 553.675781 531.773438 553.066406 532.566406 C 552.457031 533.363281 551.742188 534.046875 550.921875 534.625 C 550.097656 535.199219 549.210938 535.636719 548.253906 535.9375 C 547.300781 536.242188 546.320312 536.390625 545.320312 536.390625 Z M 545.320312 536.390625 " fill-opacity="1" fill-rule="nonzero"/><path fill="#ffffff" d="M 523.988281 595.007812 C 523.597656 595.003906 523.207031 594.980469 522.816406 594.933594 C 522.429688 594.886719 522.046875 594.816406 521.667969 594.722656 C 521.285156 594.628906 520.914062 594.511719 520.546875 594.375 C 520.183594 594.234375 519.824219 594.078125 519.480469 593.894531 C 519.132812 593.714844 518.796875 593.511719 518.476562 593.292969 C 518.152344 593.070312 517.84375 592.832031 517.550781 592.574219 C 517.257812 592.316406 516.980469 592.039062 516.71875 591.75 C 516.457031 591.457031 516.214844 591.152344 515.992188 590.832031 C 515.765625 590.511719 515.5625 590.179688 515.378906 589.832031 C 515.195312 589.488281 515.03125 589.132812 514.890625 588.769531 C 514.746094 588.40625 514.628906 588.03125 514.53125 587.652344 C 514.433594 587.273438 514.359375 586.890625 514.308594 586.503906 C 514.257812 586.117188 514.230469 585.726562 514.222656 585.335938 C 514.21875 584.945312 514.238281 584.554688 514.28125 584.167969 C 514.324219 583.777344 514.386719 583.390625 514.476562 583.011719 C 514.566406 582.628906 514.675781 582.257812 514.808594 581.886719 L 521.921875 562.351562 C 522.140625 561.75 522.417969 561.175781 522.75 560.625 C 523.085938 560.078125 523.46875 559.570312 523.902344 559.097656 C 524.335938 558.625 524.8125 558.199219 525.328125 557.824219 C 525.84375 557.445312 526.394531 557.121094 526.976562 556.851562 C 527.554688 556.578125 528.15625 556.367188 528.78125 556.21875 C 529.402344 556.066406 530.035156 555.976562 530.675781 555.949219 C 531.316406 555.921875 531.953125 555.957031 532.585938 556.054688 C 533.21875 556.152344 533.835938 556.308594 534.4375 556.527344 C 535.039062 556.75 535.613281 557.023438 536.164062 557.355469 C 536.710938 557.691406 537.222656 558.070312 537.691406 558.503906 C 538.164062 558.9375 538.589844 559.414062 538.96875 559.929688 C 539.347656 560.445312 539.675781 560.996094 539.945312 561.574219 C 540.214844 562.15625 540.429688 562.757812 540.582031 563.378906 C 540.734375 564.003906 540.824219 564.632812 540.851562 565.273438 C 540.882812 565.914062 540.847656 566.550781 540.75 567.183594 C 540.652344 567.816406 540.496094 568.4375 540.277344 569.039062 L 533.164062 588.574219 C 532.820312 589.519531 532.34375 590.386719 531.734375 591.183594 C 531.125 591.976562 530.410156 592.664062 529.589844 593.238281 C 528.769531 593.8125 527.878906 594.25 526.925781 594.550781 C 525.96875 594.855469 524.988281 595.003906 523.988281 595.007812 Z M 523.988281 595.007812 " fill-opacity="1" fill-rule="nonzero"/><g clip-path="url(#c24d5a032a)"><path fill="#ffffff" d="M 392.535156 614.539062 C 391.589844 614.539062 390.660156 614.40625 389.753906 614.132812 C 389.222656 613.976562 388.707031 613.773438 388.210938 613.527344 C 387.710938 613.28125 387.238281 612.996094 386.789062 612.667969 C 386.339844 612.34375 385.921875 611.980469 385.535156 611.582031 C 385.148438 611.1875 384.796875 610.757812 384.484375 610.300781 C 384.167969 609.84375 383.894531 609.363281 383.664062 608.859375 C 383.429688 608.355469 383.242188 607.835938 383.097656 607.300781 C 382.957031 606.761719 382.859375 606.21875 382.808594 605.667969 C 382.757812 605.113281 382.75 604.558594 382.796875 604.007812 L 387.320312 546.15625 L 358.8125 546.15625 C 358.421875 546.15625 358.03125 546.132812 357.640625 546.085938 C 357.253906 546.039062 356.871094 545.96875 356.488281 545.878906 C 356.109375 545.785156 355.734375 545.667969 355.371094 545.53125 C 355.003906 545.394531 354.648438 545.234375 354.300781 545.054688 C 353.953125 544.875 353.617188 544.671875 353.296875 544.453125 C 352.972656 544.230469 352.664062 543.992188 352.371094 543.734375 C 352.074219 543.476562 351.796875 543.203125 351.535156 542.910156 C 351.277344 542.621094 351.03125 542.3125 350.808594 541.992188 C 350.582031 541.671875 350.378906 541.339844 350.195312 540.996094 C 350.011719 540.648438 349.847656 540.296875 349.707031 539.929688 C 349.5625 539.566406 349.445312 539.195312 349.347656 538.816406 C 349.25 538.4375 349.175781 538.050781 349.125 537.664062 C 349.074219 537.277344 349.046875 536.886719 349.042969 536.496094 C 349.039062 536.105469 349.058594 535.714844 349.101562 535.324219 C 349.144531 534.9375 349.210938 534.550781 349.300781 534.171875 C 349.386719 533.789062 349.5 533.414062 349.632812 533.046875 L 381.636719 445.128906 C 381.976562 444.183594 382.453125 443.316406 383.0625 442.519531 C 383.671875 441.726562 384.390625 441.039062 385.210938 440.464844 C 386.03125 439.890625 386.917969 439.449219 387.875 439.148438 C 388.832031 438.847656 389.8125 438.699219 390.8125 438.699219 L 429.890625 438.699219 C 430.28125 438.699219 430.671875 438.722656 431.058594 438.769531 C 431.445312 438.8125 431.832031 438.882812 432.210938 438.976562 C 432.589844 439.070312 432.964844 439.183594 433.332031 439.324219 C 433.695312 439.460938 434.054688 439.621094 434.402344 439.800781 C 434.746094 439.980469 435.082031 440.179688 435.40625 440.402344 C 435.726562 440.621094 436.035156 440.863281 436.332031 441.121094 C 436.625 441.378906 436.902344 441.652344 437.164062 441.945312 C 437.425781 442.234375 437.667969 442.539062 437.894531 442.859375 C 438.117188 443.183594 438.320312 443.515625 438.507812 443.859375 C 438.691406 444.203125 438.855469 444.558594 438.996094 444.921875 C 439.136719 445.289062 439.257812 445.660156 439.355469 446.039062 C 439.453125 446.417969 439.527344 446.800781 439.578125 447.1875 C 439.628906 447.578125 439.65625 447.964844 439.660156 448.359375 C 439.664062 448.75 439.644531 449.140625 439.601562 449.527344 C 439.558594 449.917969 439.496094 450.300781 439.40625 450.683594 C 439.316406 451.0625 439.207031 451.4375 439.070312 451.804688 L 426.0625 487.542969 L 451.1875 487.542969 C 451.609375 487.542969 452.027344 487.570312 452.449219 487.625 C 452.867188 487.679688 453.277344 487.761719 453.6875 487.867188 C 454.09375 487.976562 454.492188 488.109375 454.882812 488.269531 C 455.273438 488.429688 455.652344 488.613281 456.019531 488.824219 C 456.386719 489.03125 456.738281 489.261719 457.074219 489.519531 C 457.410156 489.773438 457.730469 490.046875 458.03125 490.34375 C 458.332031 490.636719 458.613281 490.953125 458.871094 491.285156 C 459.132812 491.617188 459.371094 491.964844 459.585938 492.328125 C 459.800781 492.6875 459.992188 493.0625 460.160156 493.453125 C 460.328125 493.839844 460.46875 494.234375 460.582031 494.640625 C 460.699219 495.046875 460.785156 495.460938 460.847656 495.875 C 460.910156 496.292969 460.945312 496.714844 460.953125 497.136719 C 460.960938 497.558594 460.941406 497.976562 460.894531 498.398438 C 460.847656 498.816406 460.773438 499.230469 460.675781 499.640625 C 460.574219 500.050781 460.449219 500.453125 460.296875 500.84375 C 460.144531 501.238281 459.964844 501.621094 459.761719 501.992188 L 401.113281 609.449219 C 400.691406 610.21875 400.175781 610.921875 399.566406 611.550781 C 398.957031 612.183594 398.277344 612.722656 397.523438 613.171875 C 396.765625 613.617188 395.964844 613.957031 395.121094 614.191406 C 394.273438 614.421875 393.414062 614.539062 392.535156 614.539062 Z M 372.761719 526.617188 L 397.886719 526.617188 C 398.5625 526.617188 399.226562 526.6875 399.886719 526.824219 C 400.546875 526.960938 401.183594 527.164062 401.804688 527.433594 C 402.421875 527.703125 403.003906 528.035156 403.550781 528.425781 C 404.101562 528.816406 404.605469 529.257812 405.0625 529.753906 C 405.519531 530.246094 405.921875 530.785156 406.269531 531.363281 C 406.613281 531.941406 406.898438 532.546875 407.117188 533.183594 C 407.339844 533.820312 407.492188 534.472656 407.578125 535.140625 C 407.664062 535.808594 407.679688 536.480469 407.628906 537.152344 L 405.839844 560.007812 L 434.726562 507.082031 L 412.109375 507.082031 C 411.71875 507.082031 411.332031 507.058594 410.941406 507.011719 C 410.554688 506.964844 410.167969 506.894531 409.789062 506.800781 C 409.410156 506.707031 409.035156 506.59375 408.667969 506.457031 C 408.304688 506.316406 407.945312 506.160156 407.601562 505.976562 C 407.253906 505.796875 406.917969 505.597656 406.59375 505.375 C 406.273438 505.15625 405.964844 504.917969 405.667969 504.65625 C 405.375 504.398438 405.097656 504.125 404.835938 503.835938 C 404.574219 503.542969 404.332031 503.238281 404.109375 502.917969 C 403.882812 502.597656 403.679688 502.265625 403.492188 501.917969 C 403.308594 501.574219 403.148438 501.21875 403.003906 500.855469 C 402.863281 500.488281 402.742188 500.117188 402.644531 499.738281 C 402.550781 499.359375 402.476562 498.976562 402.421875 498.589844 C 402.371094 498.203125 402.34375 497.8125 402.339844 497.421875 C 402.335938 497.03125 402.355469 496.640625 402.398438 496.25 C 402.441406 495.863281 402.507812 495.476562 402.59375 495.09375 C 402.683594 494.714844 402.796875 494.339844 402.929688 493.972656 L 415.9375 458.234375 L 397.652344 458.234375 Z M 372.761719 526.617188 " fill-opacity="1" fill-rule="nonzero"/></g></svg>