<svg xmlns="http://www.w3.org/2000/svg" xmlns:xlink="http://www.w3.org/1999/xlink" width="1080" zoomAndPan="magnify" viewBox="0 0 810 809.999993" height="1080" preserveAspectRatio="xMidYMid meet" version="1.0"><defs><clipPath id="f020568b21"><path d="M 166.699219 202.445312 L 643.292969 202.445312 L 643.292969 607.445312 L 166.699219 607.445312 Z M 166.699219 202.445312 " clip-rule="nonzero"/></clipPath></defs><rect x="-81" width="972" fill="#ffffff" y="-80.999999" height="971.999992" fill-opacity="1"/><rect x="-81" width="972" fill="#c8e4e5" y="-80.999999" height="971.999992" fill-opacity="1"/><g clip-path="url(#f020568b21)"><path fill="#ffffff" d="M 406.308594 202.445312 C 470.917969 202.445312 524.101562 250.976562 530.195312 313.089844 C 592.605469 313.132812 643.292969 362.976562 643.292969 424.582031 C 643.292969 486.183594 592.5625 536.070312 530.066406 536.070312 L 416.886719 536.070312 C 410.328125 536.070312 404.996094 530.738281 404.996094 524.140625 C 404.996094 517.582031 410.328125 512.25 416.886719 512.25 L 530.066406 512.25 C 579.488281 512.25 619.429688 472.941406 619.429688 424.582031 C 619.429688 376.21875 579.488281 336.910156 530.066406 336.910156 L 506.921875 336.910156 L 506.921875 325.023438 C 506.921875 270.523438 461.945312 226.265625 406.308594 226.265625 C 350.710938 226.265625 305.691406 270.523438 305.691406 325.023438 C 305.691406 326.671875 305.734375 328.363281 305.816406 330.015625 L 306.285156 338.941406 L 297.820312 341.863281 C 262.363281 354.132812 238.203125 387.132812 238.203125 424.582031 C 238.203125 431.136719 232.832031 436.46875 226.273438 436.46875 C 219.714844 436.46875 214.339844 431.136719 214.339844 424.582031 C 214.339844 379.773438 241.421875 340.085938 281.910156 322.523438 C 283.222656 255.925781 338.480469 202.445312 406.308594 202.445312 Z M 428.816406 464.5625 C 441.976562 464.5625 452.679688 453.902344 452.679688 440.742188 C 452.679688 427.585938 441.976562 416.921875 428.816406 416.921875 C 415.65625 416.921875 404.996094 427.585938 404.996094 440.742188 C 404.996094 447.34375 399.664062 452.675781 393.0625 452.675781 C 386.503906 452.675781 381.175781 447.34375 381.175781 440.742188 C 381.175781 414.425781 402.5 393.101562 428.816406 393.101562 C 455.132812 393.101562 476.460938 414.425781 476.460938 440.742188 C 476.460938 467.0625 455.132812 488.386719 428.816406 488.386719 L 178.628906 488.386719 C 172.03125 488.386719 166.699219 483.054688 166.699219 476.496094 C 166.699219 469.894531 172.03125 464.5625 178.628906 464.5625 Z M 333.488281 512.25 C 359.808594 512.25 381.175781 533.574219 381.175781 559.890625 C 381.175781 586.210938 359.808594 607.535156 333.488281 607.535156 C 307.171875 607.535156 285.847656 586.210938 285.847656 559.890625 C 285.847656 553.332031 291.179688 547.960938 297.738281 547.960938 C 304.335938 547.960938 309.667969 553.332031 309.667969 559.890625 C 309.667969 573.050781 320.332031 583.714844 333.488281 583.714844 C 346.648438 583.714844 357.351562 573.050781 357.351562 559.890625 C 357.351562 546.734375 346.648438 536.070312 333.488281 536.070312 L 178.628906 536.070312 C 172.03125 536.070312 166.699219 530.738281 166.699219 524.140625 C 166.699219 517.582031 172.03125 512.25 178.628906 512.25 L 333.488281 512.25 " fill-opacity="1" fill-rule="nonzero"/></g></svg>